<svg width="146" height="145" fill="none" xmlns="http://www.w3.org/2000/svg"><circle opacity=".3" cx="73" cy="72.5" r="72.5" fill="url(#a)"/><path d="M63.125 102.125v-6.583H53.25v-6.584h6.583V56.042H53.25v-6.584h9.875v-6.583h6.583v6.583h6.584v-6.583h6.583v6.995c2.853.768 5.212 2.317 7.077 4.648 1.865 2.332 2.798 5.035 2.798 8.107a12.81 12.81 0 0 1-.823 4.566 13.008 13.008 0 0 1-2.304 3.91c1.92 1.152 3.47 2.716 4.648 4.69 1.18 1.976 1.77 4.17 1.77 6.584 0 3.62-1.289 6.72-3.867 9.299-2.579 2.578-5.678 3.868-9.299 3.868v6.583h-6.583v-6.583h-6.584v6.583h-6.583Zm3.292-32.917h13.166c1.81 0 3.361-.645 4.651-1.935 1.289-1.288 1.933-2.838 1.933-4.648 0-1.81-.644-3.36-1.933-4.651-1.29-1.288-2.84-1.932-4.65-1.932H66.416v13.166Zm0 19.75h16.458c1.81 0 3.36-.644 4.651-1.932 1.288-1.29 1.932-2.84 1.932-4.651 0-1.81-.644-3.36-1.932-4.651-1.29-1.288-2.84-1.932-4.651-1.932H66.417v13.166Z" fill="#42DDA7"/><defs><linearGradient id="a" x1=".5" y1="145" x2="145.5" y2="145" gradientUnits="userSpaceOnUse"><stop stop-color="#3FE8AB"/><stop offset="1" stop-color="#78CDCD"/></linearGradient></defs></svg>