<svg xmlns="http://www.w3.org/2000/svg" width="246" height="41" fill="none"><g opacity=".6"><path d="m42.243 36.18 5.2-31.325h11.992c2.264 0 4.09.357 5.476 1.07 1.387.704 2.35 1.668 2.89 2.892.552 1.223.694 2.61.43 4.16-.215 1.264-.643 2.35-1.286 3.258a7.974 7.974 0 0 1-2.325 2.203 9.96 9.96 0 0 1-2.952 1.208l-.06.306a5.776 5.776 0 0 1 3.028 1.01c.917.621 1.61 1.498 2.08 2.63.469 1.122.576 2.473.321 4.053a9.717 9.717 0 0 1-1.912 4.375c-1 1.285-2.355 2.3-4.069 3.044-1.702.744-3.747 1.116-6.133 1.116h-12.68Zm6.47-4.741h6.103c2.05 0 3.6-.393 4.65-1.178 1.05-.795 1.677-1.815 1.881-3.06.153-.927.061-1.763-.275-2.508-.337-.754-.892-1.346-1.667-1.774-.775-.438-1.744-.658-2.907-.658h-6.27l-1.515 9.178Zm2.218-13.262h5.613c.98 0 1.887-.178 2.723-.535a5.675 5.675 0 0 0 2.11-1.545c.572-.673.924-1.468 1.056-2.386.214-1.213-.04-2.213-.765-2.998-.724-.785-1.917-1.178-3.579-1.178h-5.751l-1.407 8.642ZM82.336 4.855l-5.2 31.325h-5.537l5.2-31.325h5.537ZM94.43 36.64c-2.314 0-4.241-.51-5.78-1.53-1.53-1.02-2.606-2.453-3.228-4.298-.622-1.846-.734-3.988-.337-6.425.398-2.406 1.193-4.512 2.386-6.317 1.204-1.805 2.718-3.202 4.543-4.19 1.836-1 3.89-1.5 6.164-1.5 2.315 0 4.237.515 5.767 1.545 1.529 1.02 2.605 2.453 3.227 4.298.632 1.846.75 3.998.352 6.455-.388 2.396-1.188 4.492-2.401 6.287-1.204 1.794-2.718 3.191-4.543 4.19-1.826.99-3.875 1.484-6.15 1.484Zm.46-4.437c1.285 0 2.411-.346 3.38-1.04.979-.703 1.779-1.646 2.401-2.83.633-1.192 1.071-2.518 1.316-3.976.224-1.407.229-2.682.015-3.824-.214-1.152-.673-2.065-1.376-2.738-.694-.683-1.657-1.025-2.891-1.025-1.285 0-2.422.357-3.411 1.07-.98.704-1.78 1.653-2.402 2.846-.622 1.183-1.05 2.503-1.284 3.962-.235 1.407-.245 2.681-.031 3.823s.673 2.05 1.377 2.723c.703.673 1.672 1.01 2.906 1.01Zm26.916 4.437c-2.345 0-4.273-.516-5.782-1.546-1.509-1.03-2.564-2.452-3.166-4.267-.591-1.825-.688-3.926-.291-6.302.388-2.386 1.188-4.492 2.402-6.317 1.223-1.835 2.763-3.263 4.619-4.283 1.856-1.03 3.931-1.545 6.225-1.545 1.907 0 3.534.352 4.88 1.056 1.356.693 2.365 1.677 3.028 2.952.673 1.264.933 2.743.78 4.436h-5.307c-.021-1.132-.373-2.076-1.056-2.83-.683-.765-1.682-1.147-2.998-1.147a5.741 5.741 0 0 0-3.151.918c-.958.601-1.769 1.468-2.432 2.6-.662 1.132-1.121 2.488-1.376 4.068-.265 1.601-.26 2.978.015 4.13.286 1.142.801 2.024 1.545 2.646.755.612 1.708.918 2.86.918a5.65 5.65 0 0 0 2.279-.459 5.478 5.478 0 0 0 1.851-1.361c.54-.592.964-1.31 1.27-2.157h5.292a11.01 11.01 0 0 1-2.233 4.42c-1.061 1.275-2.376 2.274-3.947 2.998-1.57.714-3.339 1.071-5.307 1.071Zm22.22-7.832 1.086-6.684h.887l10.05-9.438h6.47L150.221 24.25h-1.132l-5.063 4.558Zm-6.256 7.372 5.201-31.325h5.537l-5.201 31.325h-5.537Zm14.745 0-5.873-10.691 4.39-3.9 8.106 14.591h-6.623Zm26.718-23.494-.719 4.283h-13.491l.704-4.283h13.506Zm-9.254-5.628h5.537l-3.671 22.056c-.112.744-.092 1.315.061 1.713.163.387.423.652.78.795.367.143.78.214 1.239.214.336 0 .653-.025.948-.076.296-.061.531-.107.704-.138l.245 4.329a17.64 17.64 0 0 1-1.362.336c-.56.123-1.233.194-2.019.215-1.407.03-2.631-.184-3.671-.643-1.03-.469-1.784-1.188-2.263-2.157-.469-.978-.577-2.202-.322-3.67l3.794-22.974ZM197.851 26.3l2.279-13.614h5.537l-3.916 23.494h-5.369l.704-4.175h-.245c-.734 1.315-1.784 2.39-3.151 3.227-1.356.836-2.916 1.254-4.68 1.254-1.54 0-2.84-.341-3.9-1.024-1.061-.694-1.815-1.698-2.264-3.014-.439-1.325-.505-2.926-.199-4.803l2.508-14.959h5.537l-2.355 14.103c-.235 1.489-.02 2.671.642 3.548.673.877 1.673 1.316 2.998 1.316.816 0 1.637-.199 2.463-.597.836-.397 1.565-.989 2.187-1.774.622-.795 1.03-1.79 1.224-2.983Zm17.586 10.354c-1.489 0-2.784-.265-3.885-.795-1.102-.54-1.912-1.336-2.432-2.386-.51-1.05-.638-2.345-.383-3.885.224-1.326.653-2.422 1.285-3.289a7.422 7.422 0 0 1 2.355-2.08c.939-.53 1.958-.928 3.06-1.193a26.825 26.825 0 0 1 3.395-.581 91.495 91.495 0 0 0 3.411-.398c.877-.122 1.535-.306 1.973-.55.439-.255.704-.643.796-1.163v-.092c.183-1.152 0-2.044-.551-2.676-.551-.633-1.468-.949-2.753-.949-1.346 0-2.478.296-3.396.887-.918.592-1.585 1.29-2.004 2.096l-5.017-.734c.633-1.428 1.499-2.62 2.601-3.58a10.939 10.939 0 0 1 3.808-2.171c1.448-.49 2.993-.735 4.635-.735 1.122 0 2.218.133 3.288.398 1.081.265 2.035.704 2.861 1.316.836.601 1.448 1.422 1.835 2.462.398 1.04.464 2.34.199 3.9l-2.615 15.724h-5.323l.55-3.227h-.183c-.439.653-1.01 1.264-1.713 1.835-.704.561-1.54 1.015-2.509 1.362-.969.336-2.065.505-3.288.505Zm2.095-4.068c1.112 0 2.111-.22 2.998-.658a6.36 6.36 0 0 0 2.187-1.774 5.263 5.263 0 0 0 1.071-2.401l.459-2.769c-.204.143-.52.275-.948.398-.429.122-.908.23-1.438.32-.52.093-1.035.174-1.545.246L219 26.13a11.13 11.13 0 0 0-2.324.55c-.694.256-1.27.613-1.729 1.072-.449.448-.729 1.03-.841 1.743-.163 1.01.076 1.78.719 2.31.642.52 1.545.78 2.707.78ZM245.5 4.855l-5.201 31.325h-5.537l5.201-31.325h5.537Z" fill="#B5B5B5"/><circle cx="20.173" cy="20.665" r="9.563" stroke="#B5B5B5" stroke-width="6"/><circle cx="20.173" cy="20.666" r="18.741" stroke="#B5B5B5" stroke-width="2"/></g></svg>