<svg xmlns="http://www.w3.org/2000/svg" width="46" height="46" fill="none"><path d="M0 10C0 4.477 4.477 0 10 0h26c5.523 0 10 4.477 10 10v26c0 5.523-4.477 10-10 10H10C4.477 46 0 41.523 0 36V10Z" fill="url(#a)"/><path d="M25.503 14c-2.628 0-4.17 1.338-4.17 4.388v2.683H18v3.215h3.333V32h3.334v-7.714h2.666L28 21.07h-3.333v-2.139c0-1.149.388-1.718 1.506-1.718H28v-3.082A21.12 21.12 0 0 0 25.503 14Z" fill="#111"/><defs><linearGradient id="a" x1="0" y1="46" x2="46" y2="46" gradientUnits="userSpaceOnUse"><stop stop-color="#3FE8AB"/><stop offset="1" stop-color="#78CDCD"/></linearGradient></defs></svg>