<svg width="19" height="14" fill="none" xmlns="http://www.w3.org/2000/svg"><path d="M1.357 0h6.786c.36 0 .705.147.96.41.254.263.397.619.397.99s-.143.727-.398.99c-.254.262-.6.41-.96.41H1.358c-.36 0-.705-.147-.96-.41A1.423 1.423 0 0 1 0 1.4C0 1.029.143.673.397.41c.255-.263.6-.41.96-.41Zm9.5 11.2h6.786c.36 0 .705.148.96.41.254.263.397.619.397.99s-.143.727-.398.99c-.254.262-.6.41-.96.41h-6.785a1.34 1.34 0 0 1-.96-.41 1.423 1.423 0 0 1-.397-.99c0-.371.143-.727.398-.99.254-.262.6-.41.96-.41Zm-9.5-5.6h16.286c.36 0 .705.147.96.41.254.263.397.619.397.99s-.143.727-.398.99c-.254.262-.6.41-.96.41H1.358a1.34 1.34 0 0 1-.96-.41A1.423 1.423 0 0 1 0 7c0-.371.143-.727.397-.99.255-.263.6-.41.96-.41Z" fill="#fff"/></svg>