<svg width="932" height="676" fill="none" xmlns="http://www.w3.org/2000/svg"><rect x="219" y="226" width="713" height="450" rx="20" fill="#2A2C2B"/><path d="M613.753 418.898c-2.036 0-3.835-.351-5.398-1.051-1.553-.701-2.77-1.667-3.65-2.898-.881-1.231-1.317-2.633-1.307-4.205-.01-1.231.241-2.362.753-3.395a7.466 7.466 0 0 1 2.116-2.599 6.55 6.55 0 0 1 2.983-1.335v-.171c-1.449-.35-2.609-1.127-3.48-2.329-.871-1.203-1.302-2.585-1.293-4.148-.009-1.487.384-2.812 1.179-3.977.805-1.174 1.908-2.098 3.31-2.77 1.401-.672 2.997-1.009 4.787-1.009 1.771 0 3.352.341 4.744 1.023 1.402.672 2.505 1.596 3.31 2.77.805 1.165 1.212 2.486 1.221 3.963-.009 1.563-.454 2.945-1.335 4.148-.88 1.202-2.026 1.979-3.437 2.329v.171a6.351 6.351 0 0 1 2.94 1.335 7.542 7.542 0 0 1 2.102 2.599c.531 1.033.8 2.164.81 3.395-.01 1.572-.455 2.974-1.335 4.205-.881 1.231-2.103 2.197-3.665 2.898-1.553.7-3.338 1.051-5.355 1.051Zm0-3.594c1.202 0 2.244-.199 3.125-.597.881-.407 1.562-.97 2.045-1.69.483-.729.729-1.581.739-2.557-.01-1.013-.275-1.908-.796-2.684-.511-.777-1.207-1.388-2.088-1.833-.88-.445-1.889-.667-3.025-.667-1.146 0-2.164.222-3.054.667-.89.445-1.591 1.056-2.102 1.833-.512.776-.763 1.671-.753 2.684-.01.976.222 1.828.696 2.557.483.72 1.169 1.283 2.059 1.69.891.398 1.942.597 3.154.597Zm0-13.537c.966 0 1.823-.194 2.571-.582a4.41 4.41 0 0 0 1.761-1.62c.436-.691.658-1.501.668-2.429-.01-.909-.227-1.704-.654-2.386a4.15 4.15 0 0 0-1.747-1.577c-.748-.378-1.614-.568-2.599-.568-1.004 0-1.885.19-2.642.568a4.15 4.15 0 0 0-1.747 1.577c-.417.682-.621 1.477-.611 2.386-.01.928.199 1.738.625 2.429a4.41 4.41 0 0 0 1.761 1.62c.758.388 1.629.582 2.614.582Zm17.439 17.003a2.756 2.756 0 0 1-2.002-.824 2.749 2.749 0 0 1-.838-2.017c0-.777.279-1.439.838-1.989.558-.558 1.226-.838 2.002-.838.777 0 1.445.28 2.003.838.559.55.838 1.212.838 1.989 0 .521-.132.999-.397 1.435a2.936 2.936 0 0 1-1.023 1.022c-.426.256-.9.384-1.421.384Zm8.711-.27 12.699-25.114v-.213h-14.687v-3.764h19.233v3.892L644.491 418.5h-4.588Zm19.23-5.682v-3.551l12.571-19.858h2.798v5.227h-1.775l-8.992 14.233v.228h17.23v3.721h-21.832Zm13.792 5.682v-6.761l.029-1.62v-20.71h4.162V418.5h-4.191Zm23.147.398a11.742 11.742 0 0 1-3.835-.71c-1.25-.455-2.387-1.213-3.41-2.273-1.022-1.061-1.841-2.486-2.457-4.276-.606-1.79-.909-4.024-.909-6.704 0-2.538.251-4.792.753-6.762.511-1.969 1.245-3.631 2.201-4.985.957-1.364 2.112-2.401 3.466-3.111 1.355-.711 2.874-1.066 4.56-1.066 1.733 0 3.272.341 4.617 1.023a8.686 8.686 0 0 1 3.267 2.827c.842 1.202 1.377 2.571 1.605 4.105h-4.333c-.293-1.212-.876-2.202-1.747-2.969-.871-.767-2.007-1.15-3.409-1.15-2.131 0-3.793.928-4.986 2.784-1.183 1.856-1.78 4.436-1.79 7.741h.214a7.88 7.88 0 0 1 1.846-2.102 8.274 8.274 0 0 1 2.472-1.35 8.69 8.69 0 0 1 2.897-.482c1.686 0 3.211.411 4.574 1.235 1.373.815 2.467 1.942 3.282 3.381.814 1.439 1.221 3.087 1.221 4.943 0 1.856-.421 3.537-1.264 5.043a9.267 9.267 0 0 1-3.523 3.579c-1.515.872-3.286 1.298-5.312 1.279Zm-.014-3.693c1.117 0 2.116-.275 2.997-.824a5.962 5.962 0 0 0 2.088-2.216c.511-.928.767-1.965.767-3.111 0-1.117-.251-2.135-.753-3.054a5.682 5.682 0 0 0-2.045-2.188c-.862-.539-1.847-.809-2.955-.809-.843 0-1.624.161-2.344.483a5.962 5.962 0 0 0-1.875 1.335 6.483 6.483 0 0 0-1.278 1.96 5.974 5.974 0 0 0-.455 2.316c0 1.089.251 2.097.753 3.025a6.165 6.165 0 0 0 2.088 2.244c.89.559 1.894.839 3.012.839Zm34.85 6.931v-36.363h2.33v36.363h-2.33Zm7.287-25.085c-.151-1.345-.776-2.386-1.875-3.125-1.098-.748-2.481-1.122-4.147-1.122-1.194 0-2.226.189-3.097.568-.871.369-1.548.881-2.031 1.534a3.618 3.618 0 0 0-.71 2.202c0 .691.161 1.288.482 1.79.332.502.763.923 1.293 1.264.54.331 1.118.611 1.733.838.616.218 1.207.398 1.776.54l2.841.738c.928.228 1.879.535 2.855.924.975.388 1.879.899 2.713 1.534a7.351 7.351 0 0 1 2.017 2.358c.521.937.781 2.059.781 3.366 0 1.648-.426 3.111-1.278 4.389-.843 1.279-2.07 2.287-3.679 3.026-1.601.739-3.537 1.108-5.81 1.108-2.178 0-4.063-.346-5.653-1.037-1.591-.691-2.837-1.671-3.736-2.94-.9-1.279-1.397-2.794-1.492-4.546h4.404c.085 1.051.426 1.927 1.022 2.628.606.691 1.378 1.207 2.316 1.548.947.332 1.984.498 3.111.498 1.24 0 2.343-.195 3.309-.583.976-.398 1.743-.947 2.301-1.648.559-.71.838-1.538.838-2.485 0-.862-.246-1.568-.738-2.117-.483-.549-1.141-1.004-1.975-1.363a19.191 19.191 0 0 0-2.798-.952l-3.437-.938c-2.33-.634-4.177-1.567-5.54-2.798-1.354-1.231-2.031-2.86-2.031-4.886 0-1.677.454-3.14 1.363-4.39.909-1.25 2.14-2.22 3.693-2.912 1.553-.7 3.305-1.051 5.256-1.051 1.97 0 3.707.346 5.213 1.037 1.515.692 2.708 1.643 3.58 2.855.871 1.203 1.325 2.586 1.363 4.148h-4.233Z" fill="#F7F7F7"/><rect x="726" y="269" width="172" height="47" rx="10" fill="url(#a)"/><path d="M772.468 289.642a.663.663 0 0 1-.161.189.373.373 0 0 1-.21.056.557.557 0 0 1-.301-.112 4.392 4.392 0 0 0-.406-.245 3.141 3.141 0 0 0-.567-.252 2.317 2.317 0 0 0-.784-.119c-.28 0-.527.035-.742.105-.21.07-.387.168-.532.294a1.238 1.238 0 0 0-.329.448c-.07.168-.105.352-.105.553 0 .257.068.471.203.644.135.168.313.313.532.434.224.121.478.229.763.322.285.089.574.184.868.287.299.103.59.219.875.35.285.131.537.296.756.497.224.201.404.446.539.735s.203.642.203 1.057c0 .448-.077.868-.231 1.26a2.98 2.98 0 0 1-.672 1.029 3.1 3.1 0 0 1-1.078.686c-.425.168-.91.252-1.456.252-.322 0-.637-.033-.945-.098a5.018 5.018 0 0 1-.875-.259 4.68 4.68 0 0 1-.777-.42 3.86 3.86 0 0 1-.651-.546l.476-.784a.465.465 0 0 1 .161-.154.433.433 0 0 1 .217-.056c.107 0 .226.051.357.154.131.098.287.208.469.329.187.117.411.226.672.329.261.098.574.147.938.147.593 0 1.05-.145 1.372-.434.327-.289.49-.688.49-1.197 0-.285-.068-.516-.203-.693a1.612 1.612 0 0 0-.539-.455 3.758 3.758 0 0 0-.756-.308 46.03 46.03 0 0 1-.868-.266 9.84 9.84 0 0 1-.868-.336 2.94 2.94 0 0 1-.763-.504 2.415 2.415 0 0 1-.532-.77c-.135-.308-.203-.691-.203-1.148 0-.364.07-.716.21-1.057.145-.341.352-.642.623-.903a3.064 3.064 0 0 1 1.015-.637 3.702 3.702 0 0 1 1.372-.238c.579 0 1.108.091 1.589.273.485.182.903.441 1.253.777l-.399.784Zm10.065 7.035-.007 1.323h-6.286v-10.08h6.286v1.323h-4.641v3.038h3.71v1.281h-3.71v3.115h4.648Zm6.309-3.619c.364 0 .684-.047.959-.14.28-.093.511-.224.693-.392a1.63 1.63 0 0 0 .42-.623c.093-.243.14-.513.14-.812a2.12 2.12 0 0 0-.14-.791 1.51 1.51 0 0 0-.406-.595 1.795 1.795 0 0 0-.693-.371 3.175 3.175 0 0 0-.973-.133h-1.498v3.857h1.498Zm0-5.138c.658 0 1.227.077 1.708.231.485.154.884.371 1.197.651.317.275.553.609.707 1.001.154.387.231.817.231 1.288 0 .481-.082.922-.245 1.323-.163.397-.406.74-.728 1.029a3.472 3.472 0 0 1-1.204.672c-.476.159-1.031.238-1.666.238h-1.498V298h-1.638v-10.08h3.136Zm13.746 1.365h-3.143V298h-1.631v-8.715h-3.15v-1.365h7.924v1.365Zm9.096 7.392-.007 1.323h-6.286v-10.08h6.286v1.323h-4.641v3.038h3.71v1.281h-3.71v3.115h4.648Zm13.897-8.757V298h-1.442v-6.909c0-.112.002-.233.007-.364.009-.135.021-.271.035-.406l-3.241 5.985c-.126.247-.32.371-.581.371h-.231c-.266 0-.46-.124-.581-.371l-3.29-5.999c.014.135.023.271.028.406.009.135.014.261.014.378V298h-1.442v-10.08h1.225c.145 0 .257.014.336.042.079.023.152.1.217.231l3.234 5.859c.07.135.135.275.196.42.065.14.124.285.175.434a7.078 7.078 0 0 1 .378-.868l3.185-5.845c.065-.131.138-.208.217-.231a1.05 1.05 0 0 1 .336-.042h1.225Zm7.455 8.785c.369 0 .679-.042.931-.126a1.71 1.71 0 0 0 .623-.357 1.26 1.26 0 0 0 .35-.525c.075-.205.112-.425.112-.658 0-.476-.163-.849-.49-1.12-.322-.275-.833-.413-1.533-.413h-2.023v3.199h2.03Zm-2.03-7.504v3.15h1.638c.7 0 1.223-.135 1.568-.406.346-.271.518-.66.518-1.169 0-.555-.163-.957-.49-1.204-.322-.247-.828-.371-1.519-.371h-1.715Zm1.715-1.281c.644 0 1.195.063 1.652.189.458.121.833.296 1.127.525.294.229.509.509.644.84.14.327.21.695.21 1.106 0 .238-.037.469-.112.693-.07.219-.182.427-.336.623a2.432 2.432 0 0 1-.567.518 3.272 3.272 0 0 1-.812.385c1.428.303 2.142 1.062 2.142 2.275 0 .429-.081.824-.245 1.183a2.573 2.573 0 0 1-.7.924 3.282 3.282 0 0 1-1.127.602 4.974 4.974 0 0 1-1.533.217h-3.696v-10.08h3.353Zm13.487 8.757-.007 1.323h-6.286v-10.08h6.286v1.323h-4.641v3.038h3.71v1.281h-3.71v3.115h4.648Zm6.099-3.927c.374 0 .7-.044.98-.133.28-.093.514-.222.7-.385.187-.163.327-.357.42-.581.094-.229.14-.481.14-.756 0-.551-.182-.971-.546-1.26-.364-.289-.914-.434-1.652-.434h-1.33v3.549h1.288Zm4.746 5.25h-1.463c-.289 0-.499-.112-.63-.336l-2.352-3.395a.76.76 0 0 0-.259-.252c-.093-.051-.233-.077-.42-.077h-.91V298h-1.638v-10.08h2.968c.663 0 1.232.068 1.708.203.481.135.875.329 1.183.581.308.247.535.546.679.896.15.35.224.74.224 1.169a2.9 2.9 0 0 1-.161.98 2.628 2.628 0 0 1-.455.826 2.857 2.857 0 0 1-.728.644 3.714 3.714 0 0 1-.987.427c.201.121.374.292.518.511l2.723 3.843Z" fill="#111"/><path d="m256 558 92.168 50.139c19.22 10.456 43.112 6.266 57.628-10.106l34.274-38.658c15.468-17.447 41.388-20.916 60.9-8.15l19.558 12.796c22.163 14.5 51.923 7.834 65.782-14.733l44.89-73.093c13.856-22.561 43.604-29.23 65.766-14.744l36.877 24.105a47.001 47.001 0 0 0 50.638.507L896.5 416" stroke="url(#b)" stroke-width="6"/><g filter="url(#c)"><circle cx="665.5" cy="456" r="15.5" fill="#1B1B1B"/><circle cx="665.5" cy="456" r="14.5" stroke="#71D0C9" stroke-width="2"/></g><g filter="url(#d)"><rect x="130" y="144" width="451" height="164" rx="20" fill="#3B3D3C"/></g><path d="M322.701 215.378c-1.853 0-3.509-.32-4.966-.958-1.449-.639-2.596-1.525-3.441-2.659-.837-1.142-1.287-2.465-1.35-3.967h4.238c.054.819.328 1.529.823 2.132.503.594 1.16 1.053 1.97 1.377.81.323 1.709.485 2.699.485 1.088 0 2.051-.189 2.888-.566.845-.378 1.506-.905 1.983-1.579.477-.684.715-1.471.715-2.362 0-.926-.238-1.741-.715-2.442-.468-.711-1.156-1.269-2.064-1.674-.9-.404-1.989-.607-3.266-.607h-2.335v-3.4h2.335c1.026 0 1.925-.185 2.699-.554.782-.368 1.394-.881 1.835-1.538.441-.666.661-1.444.661-2.334 0-.855-.193-1.597-.58-2.227-.378-.639-.918-1.138-1.619-1.498-.693-.36-1.512-.54-2.456-.54-.9 0-1.741.167-2.524.5-.773.323-1.403.791-1.889 1.403-.486.603-.747 1.327-.783 2.173h-4.034c.045-1.494.485-2.807 1.322-3.941.846-1.133 1.961-2.019 3.347-2.658 1.385-.639 2.923-.958 4.615-.958 1.772 0 3.301.346 4.588 1.039 1.295.684 2.294 1.597 2.995 2.739a6.876 6.876 0 0 1 1.053 3.752c.009 1.547-.423 2.86-1.295 3.94-.864 1.08-2.016 1.804-3.455 2.173v.215c1.835.279 3.257 1.008 4.264 2.187 1.017 1.178 1.521 2.64 1.512 4.385.009 1.521-.414 2.883-1.269 4.089-.845 1.205-2.002 2.155-3.468 2.847-1.466.684-3.144 1.026-5.033 1.026Zm19.357-4.156-.202 1.47a23.624 23.624 0 0 1-.688 3.374 52.48 52.48 0 0 1-.985 3.279 89.364 89.364 0 0 1-.824 2.402h-2.86c.117-.558.279-1.313.485-2.267.207-.944.41-2.002.608-3.171.198-1.17.346-2.362.445-3.576l.135-1.511h3.886Zm5.87 3.778 12.064-23.858v-.202h-13.953v-3.576h18.271v3.697L352.287 215h-4.359Zm29.826.378c-1.691 0-3.211-.324-4.561-.972-1.34-.656-2.411-1.556-3.212-2.699-.8-1.142-1.228-2.447-1.282-3.913h4.049c.099 1.188.625 2.164 1.579 2.928.953.765 2.096 1.147 3.427 1.147 1.062 0 2.002-.243 2.82-.728a5.229 5.229 0 0 0 1.944-2.038c.476-.864.715-1.849.715-2.955 0-1.125-.243-2.128-.729-3.01a5.39 5.39 0 0 0-2.01-2.078c-.846-.503-1.818-.76-2.915-.769-.837 0-1.678.144-2.524.432-.845.288-1.529.666-2.051 1.134l-3.819-.567 1.552-13.926h15.195v3.576h-11.727l-.877 7.732h.162c.54-.522 1.255-.958 2.146-1.309a7.87 7.87 0 0 1 2.887-.526c1.683 0 3.181.4 4.494 1.201a8.534 8.534 0 0 1 3.117 3.279c.765 1.376 1.143 2.96 1.134 4.75.009 1.79-.396 3.387-1.215 4.79a8.791 8.791 0 0 1-3.373 3.32c-1.431.801-3.073 1.201-4.926 1.201Zm24.064.081c-2.132-.009-3.954-.571-5.465-1.687-1.512-1.116-2.668-2.739-3.468-4.871-.801-2.133-1.201-4.701-1.201-7.706 0-2.995.4-5.555 1.201-7.678.809-2.123 1.97-3.742 3.481-4.858 1.521-1.115 3.338-1.673 5.452-1.673s3.927.562 5.438 1.687c1.511 1.115 2.668 2.734 3.468 4.858.81 2.114 1.215 4.669 1.215 7.664 0 3.014-.401 5.587-1.201 7.719-.801 2.123-1.957 3.747-3.468 4.872-1.512 1.115-3.329 1.673-5.452 1.673Zm0-3.603c1.871 0 3.333-.913 4.386-2.74 1.061-1.826 1.592-4.466 1.592-7.921 0-2.294-.243-4.232-.729-5.816-.477-1.592-1.165-2.798-2.064-3.616-.891-.828-1.953-1.242-3.185-1.242-1.862 0-3.324.918-4.386 2.753-1.061 1.835-1.597 4.476-1.606 7.921 0 2.303.239 4.251.716 5.843.485 1.584 1.174 2.785 2.064 3.603.891.81 1.961 1.215 3.212 1.215Zm33.493 6.599v-34.546h2.213v34.546h-2.213Zm6.922-23.831c-.144-1.278-.737-2.267-1.781-2.969-1.043-.711-2.357-1.066-3.94-1.066-1.134 0-2.114.18-2.942.54-.828.35-1.471.836-1.93 1.457a3.446 3.446 0 0 0-.674 2.092c0 .656.153 1.223.458 1.7.315.477.725.877 1.228 1.201.513.315 1.062.58 1.647.796.584.207 1.147.378 1.687.513l2.698.701c.882.216 1.786.509 2.713.878a10.85 10.85 0 0 1 2.577 1.457 6.966 6.966 0 0 1 1.916 2.24c.495.891.743 1.957.743 3.198 0 1.566-.405 2.955-1.215 4.17-.801 1.214-1.966 2.173-3.495 2.874-1.52.702-3.36 1.053-5.519 1.053-2.069 0-3.86-.329-5.371-.985-1.511-.657-2.694-1.588-3.549-2.794-.855-1.214-1.327-2.653-1.417-4.318h4.183c.081.999.405 1.831.972 2.497.576.656 1.309 1.147 2.2 1.471.899.314 1.884.472 2.955.472 1.178 0 2.226-.185 3.144-.553.927-.378 1.655-.9 2.186-1.566.531-.674.796-1.462.796-2.361 0-.819-.234-1.489-.701-2.011-.459-.522-1.084-.954-1.876-1.295a18.214 18.214 0 0 0-2.659-.904l-3.265-.891c-2.213-.603-3.967-1.489-5.263-2.659-1.286-1.169-1.93-2.716-1.93-4.642 0-1.592.432-2.982 1.296-4.169.863-1.188 2.033-2.11 3.508-2.767 1.476-.665 3.14-.998 4.993-.998 1.871 0 3.522.328 4.953.985 1.439.657 2.573 1.561 3.4 2.712.828 1.143 1.26 2.456 1.296 3.941h-4.022Z" fill="#F7F7F7"/><path d="M321.627 245.237v1.738h-7.568v5.236h6.127v1.672h-6.127v5.379h7.568V261h-9.713v-15.763h9.713ZM333.013 261h-.869c-.19 0-.344-.029-.462-.088-.117-.059-.194-.183-.231-.374l-.22-1.034c-.293.264-.579.502-.858.715a5.4 5.4 0 0 1-.88.528 4.739 4.739 0 0 1-.99.319 5.58 5.58 0 0 1-1.155.11c-.432 0-.839-.059-1.221-.176a2.857 2.857 0 0 1-.979-.55 2.673 2.673 0 0 1-.671-.913c-.161-.374-.242-.814-.242-1.32 0-.44.121-.862.363-1.265.242-.411.631-.774 1.166-1.089.543-.315 1.251-.572 2.123-.77.873-.205 1.94-.323 3.201-.352v-.869c0-.865-.187-1.518-.561-1.958-.366-.447-.913-.671-1.639-.671-.476 0-.88.062-1.21.187a4.333 4.333 0 0 0-.847.407c-.234.147-.44.282-.616.407a.882.882 0 0 1-.506.176.637.637 0 0 1-.352-.099.884.884 0 0 1-.231-.264l-.352-.627c.616-.594 1.28-1.038 1.991-1.331.712-.293 1.5-.44 2.365-.44.624 0 1.177.103 1.661.308.484.205.891.491 1.221.858.33.367.58.81.748 1.331.169.521.253 1.093.253 1.716V261Zm-5.082-1.199c.345 0 .66-.033.946-.099.286-.073.554-.172.803-.297.257-.132.499-.29.726-.473.235-.183.462-.392.682-.627v-2.321c-.902.029-1.668.103-2.299.22-.63.11-1.144.257-1.54.44-.396.183-.685.4-.869.649a1.415 1.415 0 0 0-.264.836c0 .293.048.546.143.759.096.213.224.389.385.528.162.132.352.231.572.297.22.059.459.088.715.088ZM336.42 261v-11.143h1.122c.212 0 .359.04.44.121.08.081.135.22.165.418l.132 1.738c.381-.777.85-1.382 1.408-1.815.564-.44 1.224-.66 1.98-.66.308 0 .586.037.836.11.249.066.48.161.693.286l-.253 1.463c-.052.183-.165.275-.341.275-.103 0-.261-.033-.473-.099-.213-.073-.51-.11-.891-.11-.682 0-1.254.198-1.716.594-.455.396-.836.972-1.144 1.727V261h-1.958Zm9.313 0v-11.143h1.166c.278 0 .454.136.528.407l.154 1.21a6.307 6.307 0 0 1 1.617-1.298c.601-.33 1.294-.495 2.079-.495.608 0 1.144.103 1.606.308a2.99 2.99 0 0 1 1.166.858 3.7 3.7 0 0 1 .715 1.331c.161.521.242 1.096.242 1.727V261h-1.958v-7.095c0-.843-.195-1.496-.583-1.958-.382-.469-.968-.704-1.76-.704-.58 0-1.122.139-1.628.418a5.37 5.37 0 0 0-1.386 1.133V261h-1.958Zm14.842-11.143V261h-1.958v-11.143h1.958Zm.44-3.498c0 .191-.04.37-.121.539a1.492 1.492 0 0 1-.308.44 1.388 1.388 0 0 1-.979.407c-.19 0-.37-.037-.539-.11a1.594 1.594 0 0 1-.44-.297 1.64 1.64 0 0 1-.297-.44 1.343 1.343 0 0 1-.11-.539c0-.191.037-.37.11-.539.074-.176.173-.326.297-.451.132-.132.279-.235.44-.308.169-.073.349-.11.539-.11a1.34 1.34 0 0 1 .979.418c.132.125.235.275.308.451.081.169.121.348.121.539ZM364.466 261v-11.143h1.166c.279 0 .455.136.528.407l.154 1.21a6.307 6.307 0 0 1 1.617-1.298c.601-.33 1.294-.495 2.079-.495.609 0 1.144.103 1.606.308a2.99 2.99 0 0 1 1.166.858c.315.367.554.81.715 1.331.161.521.242 1.096.242 1.727V261h-1.958v-7.095c0-.843-.194-1.496-.583-1.958-.381-.469-.968-.704-1.76-.704a3.32 3.32 0 0 0-1.628.418 5.37 5.37 0 0 0-1.386 1.133V261h-1.958Zm16.416-11.33c.484 0 .935.055 1.353.165.425.103.81.257 1.155.462h3.025v.726c0 .242-.154.396-.462.462l-1.265.176c.249.477.374 1.008.374 1.595 0 .543-.107 1.038-.319 1.485-.206.44-.495.818-.869 1.133a3.85 3.85 0 0 1-1.32.726 5.255 5.255 0 0 1-1.672.253 5.621 5.621 0 0 1-1.474-.187 1.917 1.917 0 0 0-.539.473.865.865 0 0 0-.176.495c0 .264.106.466.319.605.212.132.495.227.847.286a9.17 9.17 0 0 0 1.199.11c.447.015.902.04 1.364.077.469.029.927.084 1.375.165.447.081.847.213 1.199.396.352.183.634.436.847.759.212.323.319.741.319 1.254 0 .477-.121.939-.363 1.386a3.646 3.646 0 0 1-1.023 1.188c-.448.352-.994.631-1.639.836-.646.213-1.375.319-2.189.319-.814 0-1.529-.081-2.145-.242-.609-.161-1.115-.378-1.518-.649-.404-.271-.708-.587-.913-.946a2.232 2.232 0 0 1-.297-1.111c0-.55.172-1.016.517-1.397.352-.389.832-.697 1.441-.924a2.034 2.034 0 0 1-.759-.583c-.184-.249-.275-.579-.275-.99 0-.161.029-.326.088-.495.058-.176.146-.348.264-.517a3.03 3.03 0 0 1 .451-.484c.176-.154.381-.29.616-.407a3.524 3.524 0 0 1-1.298-1.221c-.308-.513-.462-1.111-.462-1.793 0-.543.102-1.034.308-1.474.212-.447.506-.825.88-1.133a3.959 3.959 0 0 1 1.331-.726 5.493 5.493 0 0 1 1.705-.253Zm3.476 11.935c0-.279-.077-.502-.231-.671a1.445 1.445 0 0 0-.627-.385 4.328 4.328 0 0 0-.913-.209 12.51 12.51 0 0 0-1.089-.088l-1.166-.066a10.63 10.63 0 0 1-1.133-.121c-.418.198-.759.44-1.023.726a1.478 1.478 0 0 0-.385 1.023c0 .249.062.48.187.693.132.22.33.407.594.561.264.161.594.286.99.374.403.095.876.143 1.419.143.528 0 1.001-.048 1.419-.143a3.48 3.48 0 0 0 1.056-.407c.293-.176.517-.385.671-.627.154-.242.231-.51.231-.803Zm-3.476-6.05c.396 0 .744-.055 1.045-.165.308-.11.564-.264.77-.462a1.91 1.91 0 0 0 .462-.704c.102-.279.154-.583.154-.913 0-.682-.209-1.225-.627-1.628-.411-.403-1.012-.605-1.804-.605-.785 0-1.386.202-1.804.605-.411.403-.616.946-.616 1.628 0 .33.051.634.154.913a2.014 2.014 0 0 0 1.232 1.166c.3.11.645.165 1.034.165Zm17.129-5.874c.814 0 1.547.136 2.2.407.66.271 1.217.656 1.672 1.155a5.005 5.005 0 0 1 1.056 1.815c.249.704.374 1.492.374 2.365 0 .88-.125 1.672-.374 2.376a5.016 5.016 0 0 1-1.056 1.804 4.583 4.583 0 0 1-1.672 1.155c-.653.264-1.386.396-2.2.396-.814 0-1.551-.132-2.211-.396a4.703 4.703 0 0 1-1.672-1.155 5.14 5.14 0 0 1-1.067-1.804c-.249-.704-.374-1.496-.374-2.376 0-.873.125-1.661.374-2.365a5.128 5.128 0 0 1 1.067-1.815 4.703 4.703 0 0 1 1.672-1.155c.66-.271 1.397-.407 2.211-.407Zm0 9.944c1.1 0 1.921-.367 2.464-1.1.543-.741.814-1.771.814-3.091 0-1.327-.271-2.361-.814-3.102-.543-.741-1.364-1.111-2.464-1.111-.557 0-1.041.095-1.452.286a2.77 2.77 0 0 0-1.034.825c-.271.359-.477.803-.616 1.331a7.227 7.227 0 0 0-.198 1.771c0 .66.066 1.25.198 1.771.139.521.345.961.616 1.32.279.352.623.623 1.034.814.411.191.895.286 1.452.286Zm8.595 1.375v-9.471l-1.232-.143a1.098 1.098 0 0 1-.385-.165.42.42 0 0 1-.143-.341v-.803h1.76v-1.078c0-.638.088-1.203.264-1.694.183-.499.44-.917.77-1.254.337-.345.74-.605 1.21-.781a4.483 4.483 0 0 1 1.584-.264c.498 0 .96.073 1.386.22l-.044.979c-.008.147-.07.235-.187.264a2.178 2.178 0 0 1-.495.044h-.341c-.338 0-.646.044-.924.132a1.735 1.735 0 0 0-.704.429 1.99 1.99 0 0 0-.462.781c-.103.323-.154.722-.154 1.199v1.023h3.223v1.419h-3.157V261h-1.969Zm18.343-5.445c0 .88-.11 1.668-.33 2.365-.213.697-.532 1.287-.957 1.771a4.154 4.154 0 0 1-1.551 1.1c-.616.257-1.324.385-2.123.385a8.627 8.627 0 0 1-2.222-.308c.014-.213.033-.422.055-.627l.066-.627a.477.477 0 0 1 .132-.297c.08-.081.198-.121.352-.121.132 0 .308.033.528.099.22.066.513.099.88.099a3.5 3.5 0 0 0 1.287-.22c.381-.147.7-.374.957-.682.264-.308.462-.7.594-1.177.139-.484.209-1.056.209-1.716v-10.362h2.123v10.318ZM437.111 261h-.869a1.03 1.03 0 0 1-.462-.088c-.117-.059-.194-.183-.231-.374l-.22-1.034c-.293.264-.579.502-.858.715a5.442 5.442 0 0 1-.88.528 4.739 4.739 0 0 1-.99.319c-.345.073-.73.11-1.155.11-.433 0-.84-.059-1.221-.176a2.857 2.857 0 0 1-.979-.55 2.66 2.66 0 0 1-.671-.913c-.161-.374-.242-.814-.242-1.32 0-.44.121-.862.363-1.265.242-.411.631-.774 1.166-1.089.543-.315 1.25-.572 2.123-.77.873-.205 1.94-.323 3.201-.352v-.869c0-.865-.187-1.518-.561-1.958-.367-.447-.913-.671-1.639-.671-.477 0-.88.062-1.21.187a4.305 4.305 0 0 0-.847.407c-.235.147-.44.282-.616.407a.884.884 0 0 1-.506.176.637.637 0 0 1-.352-.099.884.884 0 0 1-.231-.264l-.352-.627c.616-.594 1.28-1.038 1.991-1.331.711-.293 1.5-.44 2.365-.44.623 0 1.177.103 1.661.308.484.205.891.491 1.221.858.33.367.579.81.748 1.331.169.521.253 1.093.253 1.716V261Zm-5.082-1.199c.345 0 .66-.033.946-.099.286-.073.554-.172.803-.297.257-.132.499-.29.726-.473.235-.183.462-.392.682-.627v-2.321c-.902.029-1.668.103-2.299.22-.631.11-1.144.257-1.54.44-.396.183-.686.4-.869.649a1.415 1.415 0 0 0-.264.836c0 .293.048.546.143.759.095.213.224.389.385.528.161.132.352.231.572.297.22.059.458.088.715.088Zm8.488 1.199v-11.143h1.166c.279 0 .455.136.528.407l.154 1.21a6.307 6.307 0 0 1 1.617-1.298c.602-.33 1.295-.495 2.079-.495.609 0 1.144.103 1.606.308.47.198.858.484 1.166.858.316.367.554.81.715 1.331.162.521.242 1.096.242 1.727V261h-1.958v-7.095c0-.843-.194-1.496-.583-1.958-.381-.469-.968-.704-1.76-.704a3.32 3.32 0 0 0-1.628.418c-.498.279-.96.656-1.386 1.133V261h-1.958Zm14.359-11.143v7.106c0 .843.194 1.496.583 1.958.389.462.975.693 1.76.693.572 0 1.111-.136 1.617-.407a5.019 5.019 0 0 0 1.397-1.133v-8.217h1.958V261h-1.166c-.279 0-.455-.136-.528-.407l-.154-1.199a6.239 6.239 0 0 1-1.628 1.298c-.601.323-1.291.484-2.068.484-.609 0-1.148-.099-1.617-.297a3.25 3.25 0 0 1-1.166-.858 3.684 3.684 0 0 1-.715-1.331 6.074 6.074 0 0 1-.231-1.727v-7.106h1.958ZM474.031 261h-.869a1.03 1.03 0 0 1-.462-.088c-.118-.059-.195-.183-.231-.374l-.22-1.034c-.294.264-.58.502-.858.715a5.442 5.442 0 0 1-.88.528 4.739 4.739 0 0 1-.99.319c-.345.073-.73.11-1.155.11-.433 0-.84-.059-1.221-.176a2.848 2.848 0 0 1-.979-.55 2.647 2.647 0 0 1-.671-.913c-.162-.374-.242-.814-.242-1.32 0-.44.121-.862.363-1.265.242-.411.63-.774 1.166-1.089.542-.315 1.25-.572 2.123-.77.872-.205 1.939-.323 3.201-.352v-.869c0-.865-.187-1.518-.561-1.958-.367-.447-.913-.671-1.639-.671-.477 0-.88.062-1.21.187a4.305 4.305 0 0 0-.847.407c-.235.147-.44.282-.616.407a.886.886 0 0 1-.506.176.635.635 0 0 1-.352-.099.857.857 0 0 1-.231-.264l-.352-.627c.616-.594 1.279-1.038 1.991-1.331.711-.293 1.499-.44 2.365-.44.623 0 1.177.103 1.661.308.484.205.891.491 1.221.858.33.367.579.81.748 1.331.168.521.253 1.093.253 1.716V261Zm-5.082-1.199c.344 0 .66-.033.946-.099a4 4 0 0 0 .803-.297c.256-.132.498-.29.726-.473.234-.183.462-.392.682-.627v-2.321c-.902.029-1.669.103-2.299.22-.631.11-1.144.257-1.54.44-.396.183-.686.4-.869.649a1.415 1.415 0 0 0-.264.836c0 .293.047.546.143.759.095.213.223.389.385.528.161.132.352.231.572.297.22.059.458.088.715.088Zm8.488 1.199v-11.143h1.122c.213 0 .359.04.44.121.081.081.136.22.165.418l.132 1.738c.381-.777.851-1.382 1.408-1.815.565-.44 1.225-.66 1.98-.66.308 0 .587.037.836.11.249.066.48.161.693.286l-.253 1.463c-.051.183-.165.275-.341.275-.103 0-.26-.033-.473-.099-.213-.073-.51-.11-.891-.11-.682 0-1.254.198-1.716.594-.455.396-.836.972-1.144 1.727V261h-1.958Zm12.58 3.289a.982.982 0 0 1-.253.352c-.095.088-.246.132-.451.132h-1.452l2.035-4.422-4.598-10.494h1.694c.169 0 .301.044.396.132a.747.747 0 0 1 .209.275l2.981 7.018c.066.161.121.323.165.484.051.161.095.326.132.495.051-.169.103-.334.154-.495.051-.161.11-.326.176-.495l2.893-7.007a.604.604 0 0 1 .22-.286.582.582 0 0 1 .352-.121h1.562l-6.215 14.432Z" fill="#969696"/><circle opacity=".3" cx="230.5" cy="223.5" r="45.5" fill="url(#e)"/><path d="M229.459 241.455v-34.546h2.213v34.546h-2.213Zm6.923-23.831c-.144-1.278-.738-2.267-1.781-2.969-1.044-.711-2.357-1.066-3.941-1.066-1.133 0-2.114.18-2.942.54-.827.35-1.47.836-1.929 1.457a3.44 3.44 0 0 0-.675 2.092c0 .656.153 1.223.459 1.7.315.477.724.877 1.228 1.201.513.315 1.061.58 1.646.796.585.207 1.147.378 1.687.513l2.699.701a20.58 20.58 0 0 1 2.712.878c.927.368 1.786.854 2.578 1.457a6.99 6.99 0 0 1 1.916 2.24c.495.891.742 1.957.742 3.198 0 1.566-.405 2.955-1.215 4.17-.8 1.214-1.965 2.173-3.495 2.874-1.52.702-3.36 1.053-5.519 1.053-2.069 0-3.859-.329-5.37-.985-1.512-.657-2.695-1.588-3.549-2.794-.855-1.214-1.327-2.653-1.417-4.318h4.183c.081.999.405 1.831.971 2.497.576.656 1.309 1.147 2.2 1.471.9.314 1.885.472 2.955.472 1.179 0 2.227-.185 3.144-.553.927-.378 1.656-.9 2.187-1.566.53-.674.796-1.462.796-2.361 0-.819-.234-1.489-.702-2.011-.459-.522-1.084-.954-1.876-1.295a18.159 18.159 0 0 0-2.658-.904l-3.266-.891c-2.213-.603-3.967-1.489-5.262-2.659-1.287-1.169-1.93-2.716-1.93-4.642 0-1.592.432-2.982 1.295-4.169.864-1.188 2.033-2.11 3.509-2.767 1.475-.665 3.139-.998 4.993-.998 1.871 0 3.522.328 4.952.985 1.44.657 2.573 1.561 3.401 2.712.827 1.143 1.259 2.456 1.295 3.941h-4.021Z" fill="#F7F7F7"/><defs><linearGradient id="a" x1="726" y1="316" x2="898" y2="316" gradientUnits="userSpaceOnUse"><stop stop-color="#3FE8AB"/><stop offset="1" stop-color="#78CDCD"/></linearGradient><linearGradient id="b" x1="256" y1="483.294" x2="898" y2="483.294" gradientUnits="userSpaceOnUse"><stop stop-color="#3FE8AB"/><stop offset="1" stop-color="#78CDCD"/></linearGradient><linearGradient id="e" x1="185" y1="269" x2="276" y2="269" gradientUnits="userSpaceOnUse"><stop stop-color="#3FE8AB"/><stop offset="1" stop-color="#78CDCD"/></linearGradient><filter id="c" x="616" y="406.5" width="99" height="99" filterUnits="userSpaceOnUse" color-interpolation-filters="sRGB"><feFlood flood-opacity="0" result="BackgroundImageFix"/><feColorMatrix in="SourceAlpha" values="0 0 0 0 0 0 0 0 0 0 0 0 0 0 0 0 0 0 127 0" result="hardAlpha"/><feOffset/><feGaussianBlur stdDeviation="17"/><feComposite in2="hardAlpha" operator="out"/><feColorMatrix values="0 0 0 0 1 0 0 0 0 1 0 0 0 0 1 0 0 0 0.15 0"/><feBlend in2="BackgroundImageFix" result="effect1_dropShadow_54_10"/><feBlend in="SourceGraphic" in2="effect1_dropShadow_54_10" result="shape"/></filter><filter id="d" x="-14" y="0" width="739" height="452" filterUnits="userSpaceOnUse" color-interpolation-filters="sRGB"><feFlood flood-opacity="0" result="BackgroundImageFix"/><feColorMatrix in="SourceAlpha" values="0 0 0 0 0 0 0 0 0 0 0 0 0 0 0 0 0 0 127 0" result="hardAlpha"/><feOffset/><feGaussianBlur stdDeviation="72"/><feComposite in2="hardAlpha" operator="out"/><feColorMatrix values="0 0 0 0 0 0 0 0 0 0 0 0 0 0 0 0 0 0 0.05 0"/><feBlend in2="BackgroundImageFix" result="effect1_dropShadow_54_10"/><feBlend in="SourceGraphic" in2="effect1_dropShadow_54_10" result="shape"/></filter></defs></svg>