<svg width="949" height="710" fill="none" xmlns="http://www.w3.org/2000/svg"><rect x="332" y="445" width="584" height="265" rx="20" fill="#3B3D3C"/><path d="M392.484 613.318v-3.551l12.571-19.858h2.799v5.227h-1.776l-8.991 14.233v.228h17.23v3.721h-21.833ZM406.277 619v-6.761l.028-1.62v-20.71h4.162V619h-4.19Zm23.146.398a11.751 11.751 0 0 1-3.835-.71c-1.25-.455-2.386-1.213-3.409-2.273-1.023-1.061-1.842-2.486-2.457-4.276-.606-1.79-.91-4.024-.91-6.704 0-2.538.251-4.792.753-6.762.512-1.969 1.246-3.631 2.202-4.985.956-1.364 2.112-2.401 3.466-3.111 1.354-.711 2.874-1.066 4.56-1.066 1.733 0 3.271.341 4.616 1.023a8.67 8.67 0 0 1 3.267 2.827c.843 1.202 1.378 2.571 1.605 4.105h-4.332c-.294-1.212-.876-2.202-1.747-2.969-.872-.767-2.008-1.15-3.409-1.15-2.131 0-3.793.928-4.986 2.784-1.184 1.856-1.78 4.436-1.79 7.741h.213a7.902 7.902 0 0 1 1.847-2.102 8.256 8.256 0 0 1 2.471-1.35 8.7 8.7 0 0 1 2.898-.482c1.686 0 3.21.411 4.574 1.235 1.373.815 2.467 1.942 3.281 3.381.815 1.439 1.222 3.087 1.222 4.943 0 1.856-.422 3.537-1.264 5.043a9.274 9.274 0 0 1-3.523 3.579c-1.515.872-3.286 1.298-5.313 1.279Zm-.014-3.693c1.118 0 2.117-.275 2.997-.824a5.946 5.946 0 0 0 2.088-2.216c.512-.928.767-1.965.767-3.111 0-1.117-.251-2.135-.752-3.054a5.692 5.692 0 0 0-2.046-2.188c-.862-.539-1.847-.809-2.954-.809a5.67 5.67 0 0 0-2.344.483 5.962 5.962 0 0 0-1.875 1.335 6.504 6.504 0 0 0-1.279 1.96 5.974 5.974 0 0 0-.454 2.316c0 1.089.251 2.097.753 3.025a6.165 6.165 0 0 0 2.088 2.244c.89.559 1.894.839 3.011.839Zm24.89 3.693c-1.78 0-3.381-.341-4.801-1.023-1.411-.691-2.538-1.638-3.381-2.841-.843-1.203-1.292-2.576-1.349-4.119h4.261c.104 1.25.658 2.277 1.662 3.082 1.004.805 2.206 1.208 3.608 1.208 1.117 0 2.107-.256 2.969-.767a5.503 5.503 0 0 0 2.045-2.145c.502-.909.753-1.946.753-3.111 0-1.184-.256-2.24-.767-3.168a5.66 5.66 0 0 0-2.116-2.187c-.891-.531-1.913-.8-3.069-.81-.88 0-1.766.152-2.656.455-.89.303-1.61.7-2.159 1.193l-4.02-.597 1.634-14.659h15.994v3.764h-12.344l-.923 8.139h.17c.569-.549 1.321-1.008 2.259-1.377a8.277 8.277 0 0 1 3.04-.554c1.77 0 3.347.421 4.73 1.264a8.981 8.981 0 0 1 3.281 3.452c.805 1.448 1.203 3.115 1.193 5 .01 1.884-.416 3.565-1.278 5.042-.852 1.477-2.036 2.642-3.551 3.495-1.506.842-3.234 1.264-5.185 1.264ZM391.815 649v-1.591l4.922-5.099c.526-.554.959-1.04 1.3-1.456.345-.422.603-.822.774-1.201.17-.378.256-.781.256-1.207 0-.483-.114-.9-.341-1.25a2.24 2.24 0 0 0-.931-.817 2.958 2.958 0 0 0-1.328-.291c-.521 0-.975.107-1.363.32a2.18 2.18 0 0 0-.895.902c-.209.388-.313.842-.313 1.363h-2.095c0-.885.204-1.659.611-2.322a4.143 4.143 0 0 1 1.676-1.541c.71-.37 1.517-.554 2.422-.554.914 0 1.719.182 2.415.547.7.359 1.247.852 1.64 1.477.393.62.59 1.321.59 2.102 0 .54-.102 1.068-.306 1.584-.199.516-.547 1.091-1.044 1.726-.497.629-1.188 1.394-2.074 2.294l-2.89 3.025v.107h6.548V649h-9.574Zm17.33.241c-1.122-.004-2.081-.3-2.877-.887-.795-.587-1.404-1.442-1.825-2.564-.421-1.122-.632-2.474-.632-4.056 0-1.576.211-2.923.632-4.041.426-1.117 1.037-1.97 1.832-2.557.801-.587 1.757-.88 2.87-.88 1.112 0 2.066.296 2.862.887.795.588 1.404 1.44 1.825 2.557.426 1.113.639 2.458.639 4.034 0 1.587-.21 2.941-.632 4.063-.421 1.117-1.03 1.972-1.825 2.564-.795.587-1.752.88-2.869.88Zm0-1.896c.985 0 1.754-.48 2.308-1.442.559-.961.838-2.35.838-4.169 0-1.207-.128-2.227-.384-3.061-.25-.838-.613-1.472-1.086-1.903a2.378 2.378 0 0 0-1.676-.654c-.98 0-1.75.483-2.309 1.449-.558.966-.84 2.356-.845 4.169 0 1.212.126 2.238.377 3.076.255.833.618 1.465 1.086 1.896.469.426 1.033.639 1.691.639Zm8.746 1.79c-.388 0-.722-.137-1.001-.412a1.373 1.373 0 0 1-.419-1.009c0-.388.139-.719.419-.994a1.367 1.367 0 0 1 1.001-.419c.388 0 .722.14 1.002.419.279.275.419.606.419.994 0 .261-.067.5-.199.718a1.474 1.474 0 0 1-.512.511 1.35 1.35 0 0 1-.71.192Zm8.773.106c-1.122-.004-2.081-.3-2.876-.887-.796-.587-1.404-1.442-1.825-2.564-.422-1.122-.633-2.474-.633-4.056 0-1.576.211-2.923.633-4.041.426-1.117 1.036-1.97 1.832-2.557.8-.587 1.757-.88 2.869-.88 1.113 0 2.067.296 2.862.887.796.588 1.404 1.44 1.826 2.557.426 1.113.639 2.458.639 4.034 0 1.587-.211 2.941-.632 4.063-.422 1.117-1.03 1.972-1.825 2.564-.796.587-1.752.88-2.87.88Zm0-1.896c.985 0 1.755-.48 2.308-1.442.559-.961.839-2.35.839-4.169 0-1.207-.128-2.227-.384-3.061-.251-.838-.613-1.472-1.087-1.903a2.374 2.374 0 0 0-1.676-.654c-.98 0-1.749.483-2.308 1.449-.559.966-.84 2.356-.845 4.169 0 1.212.125 2.238.376 3.076.256.833.618 1.465 1.087 1.896.469.426 1.032.639 1.69.639Zm12.91 1.896c-1.122-.004-2.081-.3-2.876-.887-.795-.587-1.404-1.442-1.825-2.564-.422-1.122-.632-2.474-.632-4.056 0-1.576.21-2.923.632-4.041.426-1.117 1.037-1.97 1.832-2.557.8-.587 1.757-.88 2.869-.88 1.113 0 2.067.296 2.863.887.795.588 1.403 1.44 1.825 2.557.426 1.113.639 2.458.639 4.034 0 1.587-.211 2.941-.632 4.063-.421 1.117-1.03 1.972-1.825 2.564-.796.587-1.752.88-2.87.88Zm0-1.896c.985 0 1.755-.48 2.309-1.442.558-.961.838-2.35.838-4.169 0-1.207-.128-2.227-.384-3.061-.251-.838-.613-1.472-1.086-1.903a2.378 2.378 0 0 0-1.677-.654c-.98 0-1.749.483-2.308 1.449-.559.966-.84 2.356-.845 4.169 0 1.212.125 2.238.376 3.076.256.833.618 1.465 1.087 1.896.469.426 1.032.639 1.69.639Zm15.439-1.072v-.767c0-.55.114-1.051.341-1.506a2.727 2.727 0 0 1 1.008-1.101c.445-.279.983-.419 1.613-.419.644 0 1.183.137 1.619.412.436.275.765.642.987 1.101.227.459.341.963.341 1.513v.767c0 .549-.114 1.053-.341 1.513a2.73 2.73 0 0 1-1.001 1.1c-.436.275-.971.412-1.605.412-.64 0-1.179-.137-1.62-.412a2.73 2.73 0 0 1-1.001-1.1 3.371 3.371 0 0 1-.341-1.513Zm1.655-.767v.767c0 .407.097.776.291 1.108.194.331.533.497 1.016.497.478 0 .812-.166 1.001-.497a2.2 2.2 0 0 0 .284-1.108v-.767a2.23 2.23 0 0 0-.277-1.108c-.18-.332-.516-.497-1.008-.497-.474 0-.81.165-1.009.497-.199.331-.298.7-.298 1.108Zm-8.97-7.557v-.767c0-.549.113-1.054.341-1.513a2.727 2.727 0 0 1 1.008-1.101c.445-.274.983-.412 1.612-.412.644 0 1.184.138 1.62.412.435.275.764.642.987 1.101.222.459.334.964.334 1.513v.767c0 .549-.114 1.053-.341 1.513a2.68 2.68 0 0 1-.995 1.1c-.435.275-.97.412-1.605.412-.644 0-1.186-.137-1.626-.412a2.74 2.74 0 0 1-.994-1.1 3.358 3.358 0 0 1-.341-1.513Zm1.662-.767v.767c0 .407.094.776.284 1.108.194.331.532.497 1.015.497.474 0 .805-.166.995-.497.194-.332.291-.701.291-1.108v-.767c0-.407-.093-.777-.277-1.108-.185-.332-.521-.497-1.009-.497-.473 0-.809.165-1.008.497a2.152 2.152 0 0 0-.291 1.108ZM448.372 649l10-14.545h1.698l-10 14.545h-1.698Z" fill="#F7F7F7"/><rect x="390" y="506" width="172" height="47" rx="10" fill="url(#a)"/><path d="M439.541 524.92V535h-.833a.749.749 0 0 1-.322-.063.787.787 0 0 1-.252-.224l-5.537-7.112c.014.135.023.271.028.406.009.131.014.252.014.364V535h-1.442v-10.08h.854c.07 0 .128.005.175.014a.405.405 0 0 1 .259.119c.037.037.077.084.119.14l5.544 7.119a13.374 13.374 0 0 1-.035-.427c-.005-.14-.007-.271-.007-.392v-6.573h1.435Zm10.095 8.757-.007 1.323h-6.286v-10.08h6.286v1.323h-4.641v3.038h3.71v1.281h-3.71v3.115h4.648Zm16.425-8.757L462.924 535h-1.477l-2.366-7.238a5.715 5.715 0 0 1-.084-.259 14.472 14.472 0 0 1-.07-.301 3.868 3.868 0 0 1-.077.301 2.77 2.77 0 0 1-.077.259L456.386 535h-1.477l-3.136-10.08h1.372c.14 0 .257.035.35.105a.464.464 0 0 1 .196.273l1.89 6.461c.038.14.073.292.105.455.033.163.066.334.098.511.033-.177.068-.348.105-.511.042-.168.087-.32.133-.455l2.163-6.461a.592.592 0 0 1 .196-.259.541.541 0 0 1 .35-.119h.476c.145 0 .262.037.351.112.088.07.156.159.202.266l2.157 6.461c.046.135.088.282.126.441.041.154.079.317.111.49l.091-.49a7.24 7.24 0 0 1 .105-.441l1.883-6.461a.503.503 0 0 1 .189-.266.59.59 0 0 1 .357-.112h1.282Zm13.337 8.708V535h-5.824v-10.08h1.638v8.708h4.186Zm9.102.049-.007 1.323h-6.286v-10.08h6.286v1.323h-4.641v3.038h3.71v1.281h-3.71v3.115h4.648Zm8.507-2.457-1.386-3.682a10.272 10.272 0 0 1-.343-1.085 7.325 7.325 0 0 1-.168.609c-.06.182-.116.343-.168.483l-1.386 3.675h3.451Zm3.101 3.78h-1.267a.55.55 0 0 1-.35-.105.752.752 0 0 1-.203-.273l-.84-2.226h-4.34l-.84 2.226a.66.66 0 0 1-.196.259.523.523 0 0 1-.35.119h-1.267l3.997-10.08h1.659l3.997 10.08Zm11.425-5.04a5.6 5.6 0 0 1-.364 2.051 4.61 4.61 0 0 1-1.029 1.589 4.608 4.608 0 0 1-1.589 1.036c-.616.243-1.302.364-2.058.364h-3.808v-10.08h3.808c.756 0 1.442.124 2.058.371.62.243 1.15.586 1.589 1.029.443.443.786.975 1.029 1.596.242.616.364 1.297.364 2.044Zm-1.673 0c0-.579-.08-1.099-.238-1.561a3.163 3.163 0 0 0-.672-1.169 2.872 2.872 0 0 0-1.057-.728 3.612 3.612 0 0 0-1.4-.259h-2.163v7.434h2.163c.518 0 .984-.084 1.4-.252a2.872 2.872 0 0 0 1.057-.728c.294-.322.518-.712.672-1.169.158-.462.238-.985.238-1.568Zm10.146-3.318a.663.663 0 0 1-.161.189.373.373 0 0 1-.21.056.557.557 0 0 1-.301-.112 4.392 4.392 0 0 0-.406-.245 3.141 3.141 0 0 0-.567-.252 2.317 2.317 0 0 0-.784-.119c-.28 0-.527.035-.742.105-.21.07-.387.168-.532.294a1.238 1.238 0 0 0-.329.448c-.07.168-.105.352-.105.553 0 .257.068.471.203.644.135.168.313.313.532.434.224.121.478.229.763.322.285.089.574.184.868.287.299.103.59.219.875.35.285.131.537.296.756.497.224.201.404.446.539.735s.203.642.203 1.057c0 .448-.077.868-.231 1.26a2.98 2.98 0 0 1-.672 1.029 3.1 3.1 0 0 1-1.078.686c-.425.168-.91.252-1.456.252-.322 0-.637-.033-.945-.098a5.018 5.018 0 0 1-.875-.259 4.68 4.68 0 0 1-.777-.42 3.86 3.86 0 0 1-.651-.546l.476-.784a.465.465 0 0 1 .161-.154.433.433 0 0 1 .217-.056c.107 0 .226.051.357.154.131.098.287.208.469.329.187.117.411.226.672.329.261.098.574.147.938.147.593 0 1.05-.145 1.372-.434.327-.289.49-.688.49-1.197 0-.285-.068-.516-.203-.693a1.612 1.612 0 0 0-.539-.455 3.758 3.758 0 0 0-.756-.308 46.03 46.03 0 0 1-.868-.266 9.84 9.84 0 0 1-.868-.336 2.94 2.94 0 0 1-.763-.504 2.415 2.415 0 0 1-.532-.77c-.135-.308-.203-.691-.203-1.148 0-.364.07-.716.21-1.057.145-.341.352-.642.623-.903a3.064 3.064 0 0 1 1.015-.637 3.702 3.702 0 0 1 1.372-.238c.579 0 1.108.091 1.589.273.485.182.903.441 1.253.777l-.399.784Z" fill="#111"/><path d="m565.5 618.5 2.552.399c7.622 1.191 14.898-3.615 16.794-11.093 3.808-15.013 25.131-15.035 28.968-.028l1.396 5.457c3.492 13.653 21.449 16.818 29.397 5.181l14.865-21.762a28.143 28.143 0 0 0 2.127-3.689l14.747-30.76a23.438 23.438 0 0 1 2.748-4.401l8.431-10.65c7.643-9.656 22.911-7.206 27.15 4.356a15.757 15.757 0 0 0 11.777 10.042l15.94 3.111a10.424 10.424 0 0 1 7.428 5.773c4.453 9.404 18.421 7.204 19.766-3.114l7.199-55.221a19.166 19.166 0 0 1 12.187-15.434c13.08-4.978 26.912 5.288 25.935 19.249l-.205 2.933c-1.455 20.788 24.953 30.818 37.666 14.306L867.5 513.5" stroke="url(#b)" stroke-width="6"/><g filter="url(#c)"><rect x="144" y="144" width="661" height="337" rx="20" fill="#2A2C2B"/></g><path d="M211.305 205.551c-.152-1.345-.777-2.386-1.875-3.125-1.099-.748-2.481-1.122-4.148-1.122-1.193 0-2.225.189-3.097.568-.871.369-1.548.881-2.031 1.534a3.625 3.625 0 0 0-.71 2.202c0 .691.161 1.288.483 1.79a4.33 4.33 0 0 0 1.292 1.264c.54.331 1.118.611 1.733.838.616.218 1.208.398 1.776.54l2.841.738c.928.228 1.88.535 2.855.924.975.388 1.88.899 2.713 1.534a7.34 7.34 0 0 1 2.017 2.358c.521.937.781 2.059.781 3.366 0 1.648-.426 3.111-1.278 4.389-.843 1.279-2.069 2.287-3.679 3.026-1.6.739-3.537 1.108-5.81 1.108-2.178 0-4.062-.346-5.653-1.037-1.591-.691-2.836-1.671-3.736-2.94-.9-1.279-1.397-2.794-1.491-4.546h4.403c.085 1.051.426 1.927 1.023 2.628.606.691 1.378 1.207 2.315 1.548.947.332 1.984.498 3.111.498 1.24 0 2.344-.195 3.31-.583.975-.398 1.742-.947 2.301-1.648.558-.71.838-1.538.838-2.485 0-.862-.246-1.568-.739-2.117-.483-.549-1.141-1.004-1.974-1.363a19.206 19.206 0 0 0-2.799-.952l-3.437-.938c-2.33-.634-4.176-1.567-5.54-2.798-1.354-1.231-2.031-2.86-2.031-4.886 0-1.677.454-3.14 1.364-4.39.909-1.25 2.14-2.22 3.693-2.912 1.553-.7 3.305-1.051 5.255-1.051 1.97 0 3.708.346 5.213 1.037 1.516.692 2.709 1.643 3.58 2.855.871 1.203 1.326 2.586 1.364 4.148h-4.233Zm19.719-.369v3.409h-11.917v-3.409h11.917Zm-8.721-5.227h4.247v20.639c0 .824.123 1.444.369 1.861.246.407.563.686.952.838a3.81 3.81 0 0 0 1.292.213c.341 0 .64-.024.895-.071l.597-.114.767 3.509a7.281 7.281 0 0 1-1.051.284c-.455.104-1.023.161-1.705.17a7.489 7.489 0 0 1-3.125-.596 5.367 5.367 0 0 1-2.344-1.932c-.596-.872-.894-1.965-.894-3.282v-21.519Zm19.769 27.528c-1.383 0-2.633-.256-3.75-.767-1.118-.521-2.003-1.274-2.657-2.259-.643-.984-.965-2.192-.965-3.622 0-1.231.236-2.244.71-3.04a5.238 5.238 0 0 1 1.917-1.889 10.03 10.03 0 0 1 2.699-1.051 26.79 26.79 0 0 1 3.04-.54l3.182-.369c.814-.104 1.406-.27 1.775-.497.37-.227.554-.597.554-1.108v-.1c0-1.24-.35-2.201-1.051-2.883-.691-.682-1.723-1.023-3.096-1.023-1.43 0-2.557.317-3.381.952-.814.625-1.378 1.321-1.69 2.088l-3.992-.909c.474-1.326 1.165-2.396 2.074-3.21a8.405 8.405 0 0 1 3.168-1.79 12.359 12.359 0 0 1 3.764-.568c.871 0 1.794.104 2.77.312a8.1 8.1 0 0 1 2.755 1.108c.862.54 1.568 1.312 2.117 2.316.549.994.824 2.286.824 3.877V227h-4.148v-2.983h-.17c-.275.549-.687 1.089-1.236 1.619-.549.531-1.255.971-2.117 1.321-.861.351-1.894.526-3.096.526Zm.923-3.409c1.174 0 2.178-.232 3.011-.696.843-.464 1.482-1.07 1.918-1.818a4.72 4.72 0 0 0 .668-2.429v-2.813c-.152.152-.445.294-.881.426-.426.123-.914.232-1.463.327-.549.085-1.084.166-1.605.241-.521.067-.957.124-1.307.171-.824.104-1.577.279-2.259.526-.672.246-1.212.601-1.619 1.065-.398.454-.596 1.06-.596 1.818 0 1.051.388 1.847 1.164 2.386.777.531 1.766.796 2.969.796Zm25.685-18.892v3.409h-11.917v-3.409h11.917Zm-8.721-5.227h4.247v20.639c0 .824.123 1.444.369 1.861.246.407.564.686.952.838a3.82 3.82 0 0 0 1.293.213c.341 0 .639-.024.894-.071l.597-.114.767 3.509a7.245 7.245 0 0 1-1.051.284c-.455.104-1.023.161-1.705.17a7.489 7.489 0 0 1-3.125-.596 5.364 5.364 0 0 1-2.343-1.932c-.597-.872-.895-1.965-.895-3.282v-21.519Zm27.241 17.997v-12.77h4.261V227h-4.176v-3.778h-.227c-.502 1.164-1.307 2.135-2.415 2.912-1.099.767-2.467 1.15-4.105 1.15-1.402 0-2.642-.308-3.722-.923-1.07-.625-1.913-1.549-2.528-2.77-.606-1.222-.909-2.732-.909-4.531v-13.878h4.247v13.366c0 1.487.412 2.671 1.236 3.551.823.881 1.893 1.321 3.21 1.321.795 0 1.586-.198 2.372-.596.795-.398 1.453-.999 1.974-1.804.531-.805.791-1.828.782-3.068Zm26.317-7.443-3.849.681a4.57 4.57 0 0 0-.767-1.406c-.341-.445-.805-.81-1.392-1.094-.588-.284-1.321-.426-2.202-.426-1.203 0-2.207.27-3.012.81-.804.53-1.207 1.217-1.207 2.06 0 .729.27 1.316.81 1.761.54.445 1.411.81 2.613 1.094l3.466.795c2.008.464 3.504 1.179 4.489 2.145.985.966 1.477 2.221 1.477 3.764 0 1.307-.379 2.472-1.136 3.495-.748 1.013-1.795 1.808-3.139 2.386-1.336.578-2.884.866-4.645.866-2.443 0-4.437-.52-5.98-1.562-1.544-1.051-2.491-2.543-2.841-4.475l4.105-.625c.256 1.07.781 1.88 1.577 2.429.795.54 1.832.81 3.11.81 1.392 0 2.505-.289 3.338-.866.834-.588 1.25-1.303 1.25-2.145 0-.682-.255-1.255-.767-1.719-.502-.464-1.273-.814-2.315-1.051l-3.693-.81c-2.036-.464-3.542-1.203-4.517-2.216-.966-1.013-1.449-2.296-1.449-3.849 0-1.288.36-2.415 1.079-3.381.72-.966 1.714-1.719 2.983-2.258 1.269-.55 2.723-.824 4.361-.824 2.358 0 4.214.511 5.568 1.534 1.355 1.013 2.249 2.372 2.685 4.077ZM484.13 243v-2.386l7.383-7.65a40.432 40.432 0 0 0 1.949-2.183c.519-.633.906-1.233 1.162-1.801a4.373 4.373 0 0 0 .383-1.811c0-.724-.17-1.349-.511-1.875a3.338 3.338 0 0 0-1.396-1.225c-.589-.291-1.253-.437-1.992-.437-.781 0-1.463.16-2.046.48a3.286 3.286 0 0 0-1.342 1.352c-.312.583-.469 1.265-.469 2.046h-3.142c0-1.328.305-2.489.916-3.484a6.23 6.23 0 0 1 2.514-2.312c1.065-.553 2.276-.83 3.633-.83 1.371 0 2.578.273 3.622.82 1.051.54 1.871 1.278 2.461 2.216.589.93.884 1.981.884 3.153 0 .81-.152 1.602-.458 2.376-.298.774-.82 1.637-1.566 2.589-.746.944-1.783 2.091-3.111 3.441l-4.336 4.538v.16h9.823V243H484.13Zm18.398 0v-2.386l7.383-7.65a40.5 40.5 0 0 0 1.95-2.183c.518-.633.905-1.233 1.161-1.801a4.358 4.358 0 0 0 .384-1.811c0-.724-.171-1.349-.512-1.875a3.341 3.341 0 0 0-1.395-1.225c-.59-.291-1.254-.437-1.993-.437-.781 0-1.463.16-2.045.48a3.28 3.28 0 0 0-1.342 1.352c-.313.583-.469 1.265-.469 2.046h-3.143c0-1.328.306-2.489.916-3.484a6.226 6.226 0 0 1 2.515-2.312c1.065-.553 2.276-.83 3.632-.83 1.371 0 2.578.273 3.622.82 1.052.54 1.872 1.278 2.461 2.216.59.93.885 1.981.885 3.153 0 .81-.153 1.602-.458 2.376-.299.774-.821 1.637-1.567 2.589-.745.944-1.782 2.091-3.11 3.441l-4.336 4.538v.16h9.822V243h-14.361Zm20.54.202a2.07 2.07 0 0 1-1.502-.617 2.065 2.065 0 0 1-.628-1.513c0-.583.209-1.08.628-1.492a2.05 2.05 0 0 1 1.502-.628c.583 0 1.083.209 1.502.628.419.412.629.909.629 1.492 0 .39-.1.749-.298 1.076a2.217 2.217 0 0 1-.767.767 2.03 2.03 0 0 1-1.066.287Zm6.355-.202v-2.386l7.383-7.65a40.432 40.432 0 0 0 1.949-2.183c.519-.633.906-1.233 1.162-1.801a4.373 4.373 0 0 0 .383-1.811c0-.724-.17-1.349-.511-1.875a3.338 3.338 0 0 0-1.396-1.225c-.589-.291-1.253-.437-1.992-.437-.781 0-1.463.16-2.046.48a3.286 3.286 0 0 0-1.342 1.352c-.312.583-.469 1.265-.469 2.046h-3.142c0-1.328.305-2.489.916-3.484a6.23 6.23 0 0 1 2.514-2.312c1.065-.553 2.276-.83 3.633-.83 1.371 0 2.578.273 3.622.82 1.051.54 1.871 1.278 2.461 2.216.589.93.884 1.981.884 3.153 0 .81-.153 1.602-.458 2.376-.298.774-.82 1.637-1.566 2.589-.746.944-1.783 2.091-3.111 3.441l-4.336 4.538v.16h9.823V243h-14.361Zm33.071 2.727v-27.272h1.747v27.272h-1.747Zm5.465-18.814c-.114-1.008-.582-1.789-1.406-2.343-.824-.561-1.861-.842-3.111-.842-.895 0-1.669.142-2.323.426-.653.277-1.161.661-1.523 1.151a2.716 2.716 0 0 0-.533 1.651c0 .518.121.966.363 1.342.248.377.571.693.969.948.405.249.838.459 1.3.629.461.163.905.298 1.331.405l2.131.554c.696.17 1.41.401 2.141.692.732.291 1.41.675 2.035 1.151a5.508 5.508 0 0 1 1.513 1.768c.391.703.586 1.545.586 2.525 0 1.236-.32 2.333-.959 3.292-.632.959-1.552 1.715-2.759 2.269-1.2.554-2.653.831-4.357.831-1.634 0-3.047-.259-4.24-.777-1.194-.519-2.127-1.254-2.802-2.206-.675-.959-1.048-2.095-1.119-3.409h3.303c.064.789.319 1.445.767 1.971.454.519 1.033.906 1.736 1.161a7.012 7.012 0 0 0 2.333.373c.931 0 1.758-.145 2.483-.437.731-.298 1.306-.71 1.726-1.235.419-.533.628-1.155.628-1.865 0-.646-.185-1.175-.554-1.587-.362-.412-.856-.753-1.481-1.023a14.466 14.466 0 0 0-2.098-.714l-2.579-.703c-1.747-.476-3.132-1.175-4.154-2.099-1.016-.923-1.524-2.144-1.524-3.664 0-1.257.341-2.355 1.023-3.292.682-.938 1.605-1.666 2.77-2.184 1.165-.526 2.478-.788 3.942-.788 1.477 0 2.78.259 3.909.777 1.137.519 2.032 1.232 2.685 2.142.653.902.994 1.938 1.023 3.11h-3.175ZM209.672 429.276c-.076-.673-.388-1.194-.938-1.563-.549-.374-1.24-.561-2.073-.561-.597 0-1.113.095-1.549.284-.435.185-.774.44-1.015.767a1.81 1.81 0 0 0-.356 1.101c0 .346.081.644.242.895.166.251.381.462.646.632.27.166.559.305.867.419.308.109.603.199.888.27l1.42.369c.464.114.94.268 1.428.462.487.194.939.45 1.356.767.417.317.753.71 1.009 1.179.26.469.39 1.03.39 1.683 0 .824-.213 1.556-.639 2.195-.421.639-1.035 1.143-1.839 1.513-.801.369-1.769.553-2.905.553-1.089 0-2.032-.172-2.827-.518-.795-.346-1.418-.836-1.868-1.47-.45-.639-.698-1.397-.746-2.273h2.202c.043.526.213.964.511 1.314.303.346.689.604 1.158.774.474.166.992.249 1.555.249.621 0 1.172-.097 1.655-.291.488-.199.872-.474 1.151-.824.279-.355.419-.77.419-1.243 0-.431-.123-.784-.369-1.058-.242-.275-.571-.502-.988-.682a9.595 9.595 0 0 0-1.399-.476l-1.719-.469c-1.164-.317-2.088-.783-2.769-1.399-.677-.616-1.016-1.43-1.016-2.443 0-.838.227-1.57.682-2.195.454-.625 1.07-1.11 1.846-1.456.777-.35 1.653-.525 2.628-.525.985 0 1.854.173 2.607.518.757.346 1.354.822 1.79 1.428.435.601.662 1.292.681 2.074h-2.116Zm11.678 6.2v-6.385h2.13V440h-2.088v-1.889h-.113a3.407 3.407 0 0 1-1.208 1.456c-.549.383-1.233.575-2.052.575-.701 0-1.321-.154-1.861-.462-.535-.312-.956-.774-1.264-1.385-.303-.61-.455-1.366-.455-2.265v-6.939h2.124v6.683c0 .744.206 1.335.618 1.776.412.44.947.66 1.605.66.398 0 .793-.099 1.186-.298.398-.199.727-.5.987-.902.265-.403.396-.914.391-1.534Zm7.107-1.953V440h-2.123v-10.909h2.038v1.775h.135a3.126 3.126 0 0 1 1.179-1.392c.54-.35 1.219-.525 2.038-.525.744 0 1.395.156 1.954.469.558.307.992.767 1.299 1.377.308.611.462 1.366.462 2.266V440h-2.124v-6.683c0-.791-.206-1.409-.618-1.854-.411-.45-.977-.675-1.697-.675-.492 0-.93.107-1.314.32a2.304 2.304 0 0 0-.902.937c-.218.408-.327.9-.327 1.478Zm76.164-8.068h2.664l4.63 11.306h.171l4.631-11.306h2.663V440h-2.088v-10.526h-.135l-4.29 10.505h-1.733l-4.29-10.512h-.134V440h-2.089v-14.545Zm22.374 14.765c-1.022 0-1.915-.234-2.677-.703s-1.354-1.124-1.776-1.967c-.421-.843-.632-1.828-.632-2.955 0-1.131.211-2.121.632-2.969.422-.847 1.014-1.505 1.776-1.974.762-.469 1.655-.703 2.677-.703 1.023 0 1.916.234 2.678.703s1.354 1.127 1.776 1.974c.421.848.632 1.838.632 2.969 0 1.127-.211 2.112-.632 2.955-.422.843-1.014 1.498-1.776 1.967-.762.469-1.655.703-2.678.703Zm.007-1.782c.663 0 1.213-.176 1.648-.526.436-.35.758-.817.966-1.399a5.57 5.57 0 0 0 .32-1.925 5.55 5.55 0 0 0-.32-1.918c-.208-.587-.53-1.058-.966-1.413-.435-.355-.985-.533-1.648-.533-.667 0-1.221.178-1.661.533-.436.355-.76.826-.973 1.413a5.645 5.645 0 0 0-.313 1.918c0 .701.104 1.342.313 1.925.213.582.537 1.049.973 1.399.44.35.994.526 1.661.526Zm9.573-4.915V440h-2.124v-10.909h2.038v1.775h.135a3.126 3.126 0 0 1 1.179-1.392c.54-.35 1.219-.525 2.039-.525.743 0 1.394.156 1.953.469.558.307.992.767 1.299 1.377.308.611.462 1.366.462 2.266V440h-2.123v-6.683c0-.791-.206-1.409-.618-1.854-.412-.45-.978-.675-1.698-.675-.492 0-.93.107-1.314.32a2.304 2.304 0 0 0-.902.937c-.218.408-.326.9-.326 1.478Zm75.718-6.179v-1.889h11.257v1.889h-4.538V440h-2.188v-12.656h-4.531Zm19 8.132v-6.385h2.131V440h-2.088v-1.889h-.114a3.405 3.405 0 0 1-1.207 1.456c-.55.383-1.234.575-2.053.575-.701 0-1.321-.154-1.861-.462-.535-.312-.956-.774-1.264-1.385-.303-.61-.454-1.366-.454-2.265v-6.939h2.123v6.683c0 .744.206 1.335.618 1.776.412.44.947.66 1.605.66.398 0 .793-.099 1.186-.298.398-.199.727-.5.988-.902.265-.403.395-.914.39-1.534Zm9.686 4.744c-1.075 0-2.001-.229-2.777-.689a4.676 4.676 0 0 1-1.79-1.953c-.417-.843-.625-1.83-.625-2.962 0-1.117.208-2.102.625-2.954.422-.852 1.009-1.518 1.761-1.996.758-.478 1.643-.717 2.657-.717.615 0 1.212.102 1.789.305a4.333 4.333 0 0 1 1.556.959c.459.436.821 1.001 1.087 1.698.265.691.397 1.531.397 2.521v.753h-8.672v-1.591h6.591c0-.559-.113-1.054-.341-1.485a2.569 2.569 0 0 0-.958-1.029c-.408-.251-.886-.377-1.435-.377-.597 0-1.117.147-1.563.44-.44.289-.781.668-1.022 1.137a3.276 3.276 0 0 0-.355 1.513v1.243c0 .729.127 1.349.383 1.86.261.512.623.902 1.087 1.172.464.265 1.006.398 1.626.398.403 0 .77-.057 1.101-.171a2.272 2.272 0 0 0 1.413-1.384l2.01.362a3.633 3.633 0 0 1-.866 1.555c-.412.44-.931.784-1.556 1.03-.62.241-1.328.362-2.123.362Zm76.6-.22-4.034-14.545h2.308l2.834 11.264h.135l2.947-11.264h2.287l2.948 11.271h.134l2.827-11.271h2.316L528.239 440h-2.208l-3.062-10.895h-.113L519.795 440h-2.216Zm20.16.22c-1.075 0-2.001-.229-2.777-.689a4.67 4.67 0 0 1-1.79-1.953c-.417-.843-.625-1.83-.625-2.962 0-1.117.208-2.102.625-2.954.421-.852 1.008-1.518 1.761-1.996.758-.478 1.643-.717 2.656-.717.616 0 1.213.102 1.79.305a4.341 4.341 0 0 1 1.556.959c.459.436.821 1.001 1.086 1.698.265.691.398 1.531.398 2.521v.753h-8.672v-1.591h6.591c0-.559-.114-1.054-.341-1.485a2.571 2.571 0 0 0-.959-1.029c-.407-.251-.885-.377-1.434-.377-.597 0-1.118.147-1.563.44-.44.289-.781.668-1.023 1.137a3.289 3.289 0 0 0-.355 1.513v1.243c0 .729.128 1.349.384 1.86.26.512.623.902 1.087 1.172.464.265 1.006.398 1.626.398.402 0 .769-.057 1.101-.171a2.37 2.37 0 0 0 .859-.525c.242-.232.426-.519.554-.859l2.01.362a3.643 3.643 0 0 1-.866 1.555c-.412.44-.931.784-1.556 1.03-.62.241-1.328.362-2.123.362Zm11.12-.007c-.881 0-1.667-.225-2.358-.675-.686-.454-1.226-1.101-1.619-1.939-.389-.842-.583-1.853-.583-3.032s.197-2.188.59-3.026c.398-.838.942-1.479 1.633-1.925.692-.445 1.475-.667 2.351-.667.677 0 1.222.113 1.634.341.416.222.738.483.966.781.232.298.412.561.539.788h.128v-5.404h2.124V440h-2.074v-1.697h-.178a5.491 5.491 0 0 1-.554.795c-.236.298-.563.559-.98.781-.416.223-.956.334-1.619.334Zm.469-1.811c.611 0 1.127-.161 1.548-.483.426-.327.748-.779.966-1.357.223-.577.334-1.25.334-2.017 0-.757-.109-1.42-.327-1.988-.218-.568-.537-1.011-.959-1.328-.421-.318-.942-.476-1.562-.476-.639 0-1.172.166-1.598.497-.426.331-.748.784-.966 1.357-.213.572-.32 1.219-.32 1.938 0 .73.109 1.385.327 1.968.218.582.54 1.044.966 1.385.431.336.961.504 1.591.504Zm73.576-11.058v-1.889h11.257v1.889h-4.538V440h-2.188v-12.656h-4.531Zm15.698 6.179V440h-2.124v-14.545h2.096v5.411h.134a3.143 3.143 0 0 1 1.172-1.399c.526-.345 1.212-.518 2.06-.518.748 0 1.402.154 1.96.462.564.307.999.767 1.307 1.377.313.606.469 1.364.469 2.273V440h-2.124v-6.683c0-.8-.206-1.421-.618-1.861-.412-.445-.985-.668-1.718-.668-.502 0-.952.107-1.35.32a2.306 2.306 0 0 0-.93.937c-.223.408-.334.9-.334 1.478Zm16.818 1.953v-6.385h2.131V440h-2.088v-1.889h-.114a3.405 3.405 0 0 1-1.207 1.456c-.55.383-1.234.575-2.053.575-.701 0-1.321-.154-1.861-.462-.535-.312-.956-.774-1.264-1.385-.303-.61-.454-1.366-.454-2.265v-6.939h2.123v6.683c0 .744.206 1.335.618 1.776.412.44.947.66 1.605.66.398 0 .793-.099 1.186-.298.398-.199.727-.5.987-.902.266-.403.396-.914.391-1.534ZM726.979 440v-14.545h9.02v1.889h-6.826v4.432h6.179v1.882h-6.179V440h-2.194Zm11.411 0v-10.909h2.053v1.733h.114a2.637 2.637 0 0 1 1.051-1.385 3.005 3.005 0 0 1 1.719-.511 8.487 8.487 0 0 1 .902.049v2.032a3.848 3.848 0 0 0-.455-.079 4.36 4.36 0 0 0-.653-.049c-.502 0-.95.106-1.343.319a2.38 2.38 0 0 0-1.264 2.138V440h-2.124Zm7.676 0v-10.909h2.124V440h-2.124Zm1.073-12.592c-.37 0-.687-.123-.952-.37a1.202 1.202 0 0 1-.391-.895c0-.35.131-.648.391-.894.265-.251.582-.377.952-.377.369 0 .684.126.944.377.265.246.398.544.398.894 0 .346-.133.644-.398.895a1.32 1.32 0 0 1-.944.37Z" fill="#F7F7F7"/><path d="M144 303.5h27.306a47.003 47.003 0 0 1 30.329 11.095l32.31 27.293c19.495 16.468 48.568 14.371 65.497-4.724l28.628-32.289c15.468-17.447 41.388-20.916 60.9-8.15l27.812 18.196c18.737 12.259 43.52 9.598 59.227-6.359l31.537-32.037c19.333-19.641 51.339-18.508 69.236 2.45l1.293 1.514c20.564 24.082 58.576 21.349 75.483-5.428l31.22-49.445c16.658-26.382 53.926-29.508 74.746-6.27l29.637 33.078A21.266 21.266 0 0 0 805 259.5" stroke="url(#d)" stroke-width="6"/><g filter="url(#e)"><circle cx="527.5" cy="265.5" r="15.5" fill="#1B1B1B"/><circle cx="527.5" cy="265.5" r="14.5" stroke="#71D0C9" stroke-width="2"/></g><defs><linearGradient id="a" x1="390" y1="553" x2="562" y2="553" gradientUnits="userSpaceOnUse"><stop stop-color="#3FE8AB"/><stop offset="1" stop-color="#78CDCD"/></linearGradient><linearGradient id="b" x1="460.541" y1="813.695" x2="832.427" y2="813.695" gradientUnits="userSpaceOnUse"><stop stop-color="#3FE8AB"/><stop offset="1" stop-color="#78CDCD"/></linearGradient><linearGradient id="d" x1="144" y1="368.794" x2="786" y2="368.794" gradientUnits="userSpaceOnUse"><stop stop-color="#3FE8AB"/><stop offset="1" stop-color="#78CDCD"/></linearGradient><filter id="c" x="0" y="0" width="949" height="625" filterUnits="userSpaceOnUse" color-interpolation-filters="sRGB"><feFlood flood-opacity="0" result="BackgroundImageFix"/><feColorMatrix in="SourceAlpha" values="0 0 0 0 0 0 0 0 0 0 0 0 0 0 0 0 0 0 127 0" result="hardAlpha"/><feOffset/><feGaussianBlur stdDeviation="72"/><feComposite in2="hardAlpha" operator="out"/><feColorMatrix values="0 0 0 0 0 0 0 0 0 0 0 0 0 0 0 0 0 0 0.05 0"/><feBlend in2="BackgroundImageFix" result="effect1_dropShadow_54_7"/><feBlend in="SourceGraphic" in2="effect1_dropShadow_54_7" result="shape"/></filter><filter id="e" x="478" y="216" width="99" height="99" filterUnits="userSpaceOnUse" color-interpolation-filters="sRGB"><feFlood flood-opacity="0" result="BackgroundImageFix"/><feColorMatrix in="SourceAlpha" values="0 0 0 0 0 0 0 0 0 0 0 0 0 0 0 0 0 0 127 0" result="hardAlpha"/><feOffset/><feGaussianBlur stdDeviation="17"/><feComposite in2="hardAlpha" operator="out"/><feColorMatrix values="0 0 0 0 1 0 0 0 0 1 0 0 0 0 1 0 0 0 0.15 0"/><feBlend in2="BackgroundImageFix" result="effect1_dropShadow_54_7"/><feBlend in="SourceGraphic" in2="effect1_dropShadow_54_7" result="shape"/></filter></defs></svg>