<svg xmlns="http://www.w3.org/2000/svg" width="46" height="46" fill="none"><path d="M1 10a9 9 0 0 1 9-9h26a9 9 0 0 1 9 9v26a9 9 0 0 1-9 9H10a9 9 0 0 1-9-9V10Z" fill="#151515" stroke="#383F3E" stroke-width="2"/><path d="M20.41 15C17.99 15 16 17.12 16 19.705v6.59C16 28.878 17.987 31 20.41 31h6.18c2.42 0 4.41-2.12 4.41-4.705v-6.59C31 17.123 29.013 15 26.59 15h-6.18Zm0 1.454h6.18c.4 0 .796.084 1.166.247.37.163.706.402.99.704.282.302.507.66.66 1.055.152.395.23.818.23 1.245v6.59c0 .427-.078.85-.23 1.245a3.267 3.267 0 0 1-.66 1.055c-.284.302-.62.541-.99.704a2.89 2.89 0 0 1-1.167.247h-6.178c-.4 0-.797-.084-1.167-.247a3.038 3.038 0 0 1-.989-.704 3.27 3.27 0 0 1-.66-1.055 3.437 3.437 0 0 1-.231-1.245v-6.59c-.001-.427.077-.85.23-1.244.153-.395.378-.753.66-1.055a3.05 3.05 0 0 1 .99-.705 2.88 2.88 0 0 1 1.167-.247Zm7.117 1.592a.581.581 0 0 0-.237.05.615.615 0 0 0-.2.142.694.694 0 0 0-.18.467c0 .366.273.659.617.659a.581.581 0 0 0 .237-.05.616.616 0 0 0 .2-.142.695.695 0 0 0 .134-.72.662.662 0 0 0-.133-.214.613.613 0 0 0-.201-.143.58.58 0 0 0-.237-.05Zm-4.027.59c-2.25 0-4.09 1.964-4.09 4.364s1.84 4.364 4.09 4.364S27.59 25.4 27.59 23s-1.84-4.364-4.09-4.364Zm0 1.455c1.516 0 2.727 1.292 2.727 2.909 0 1.617-1.211 2.91-2.727 2.91-1.516 0-2.727-1.293-2.727-2.91 0-1.617 1.211-2.91 2.727-2.91Z" fill="#F6F6F6"/></svg>