<svg xmlns="http://www.w3.org/2000/svg" width="227" height="44" fill="none"><g opacity=".6" fill="#B5B5B5"><path d="M62.085 1.421v20.804c0 3.188-.876 5.643-2.627 7.366-1.723 1.723-4.12 2.584-7.193 2.584-3.331 0-5.973-.933-7.926-2.8-1.952-1.895-2.928-4.608-2.928-8.14h7.279c0 2.843 1.077 4.264 3.23 4.264 1.867 0 2.8-1.091 2.8-3.274V1.421h7.365Zm15.284 6.117c1.837 0 3.417.416 4.737 1.249a7.509 7.509 0 0 1 2.93 3.402V7.84h7.322v24.035h-7.323v-4.35a7.51 7.51 0 0 1-2.928 3.402c-1.321.833-2.9 1.25-4.738 1.25-1.982 0-3.762-.49-5.341-1.465-1.551-1.005-2.786-2.441-3.705-4.308-.89-1.866-1.335-4.048-1.335-6.547 0-2.527.445-4.709 1.335-6.547.92-1.866 2.154-3.287 3.705-4.264 1.579-1.005 3.36-1.507 5.34-1.507Zm2.368 6.46c-1.579 0-2.857.517-3.833 1.551-.947 1.034-1.421 2.47-1.421 4.307 0 1.838.474 3.274 1.421 4.308.976 1.033 2.254 1.55 3.834 1.55 1.55 0 2.814-.531 3.79-1.593 1.005-1.063 1.507-2.484 1.507-4.265 0-1.809-.502-3.23-1.507-4.264-.976-1.062-2.24-1.594-3.79-1.594Zm29.838-6.46c3.101 0 5.7.861 7.796 2.584 2.097 1.694 3.417 4.034 3.963 7.02h-7.796c-.23-1.033-.704-1.837-1.421-2.411-.718-.575-1.623-.862-2.714-.862-1.292 0-2.355.517-3.187 1.55-.833 1.006-1.249 2.485-1.249 4.437 0 1.953.416 3.446 1.249 4.48.832 1.005 1.895 1.507 3.187 1.507 1.091 0 1.996-.287 2.714-.861.717-.574 1.191-1.378 1.421-2.412h7.796c-.546 2.986-1.866 5.34-3.963 7.064-2.096 1.694-4.695 2.541-7.796 2.541-2.354 0-4.451-.488-6.288-1.464-1.809-1.005-3.231-2.441-4.265-4.308-1.033-1.866-1.55-4.048-1.55-6.547 0-2.527.502-4.709 1.508-6.547 1.033-1.866 2.469-3.287 4.307-4.264 1.837-1.005 3.934-1.507 6.288-1.507Zm31.454 24.336-7.193-10.209v10.209h-7.365V0h7.365v17.487l7.193-9.648h8.658l-9.692 12.017 9.907 12.018h-8.873Zm27.844-24.336c1.981 0 3.747.502 5.298 1.507 1.579.976 2.814 2.398 3.704 4.264.919 1.838 1.379 4.02 1.379 6.547 0 2.499-.46 4.68-1.379 6.547-.89 1.867-2.125 3.303-3.704 4.308-1.551.976-3.317 1.464-5.298 1.464-1.838 0-3.417-.416-4.738-1.249a7.254 7.254 0 0 1-2.886-3.403v15.808h-7.365V7.839h7.365v4.35a7.253 7.253 0 0 1 2.886-3.402c1.321-.833 2.9-1.25 4.738-1.25Zm-2.369 6.46c-1.55 0-2.828.532-3.833 1.594-.977 1.034-1.465 2.455-1.465 4.264 0 1.78.488 3.202 1.465 4.264 1.005 1.063 2.283 1.594 3.833 1.594 1.579 0 2.843-.517 3.791-1.55.976-1.034 1.464-2.47 1.464-4.308 0-1.837-.488-3.273-1.464-4.307-.948-1.034-2.212-1.55-3.791-1.55Zm29.106-6.46c2.383 0 4.508.502 6.374 1.507 1.896.976 3.374 2.398 4.437 4.264 1.091 1.867 1.637 4.05 1.637 6.547 0 2.499-.546 4.68-1.637 6.547a10.862 10.862 0 0 1-4.437 4.308c-1.866.976-3.991 1.464-6.374 1.464-2.384 0-4.523-.488-6.418-1.464a11.154 11.154 0 0 1-4.48-4.308c-1.062-1.866-1.593-4.048-1.593-6.547 0-2.498.531-4.68 1.593-6.547 1.092-1.866 2.585-3.287 4.48-4.264 1.895-1.005 4.034-1.507 6.418-1.507Zm0 6.374c-1.407 0-2.599.517-3.575 1.551-.948 1.005-1.422 2.47-1.422 4.393 0 1.924.474 3.389 1.422 4.394.976 1.005 2.168 1.507 3.575 1.507s2.584-.502 3.532-1.507c.947-1.005 1.421-2.47 1.421-4.394s-.474-3.388-1.421-4.393c-.948-1.034-2.125-1.55-3.532-1.55Zm31.17 11.63v6.332h-3.317c-2.814 0-5.01-.69-6.59-2.068-1.55-1.407-2.326-3.719-2.326-6.935v-8.83h-3.23V7.84h3.23v-5.9h7.366v5.9h4.824v6.203h-4.824V23c0 .947.186 1.608.56 1.981.402.373 1.062.56 1.981.56h2.326Z"/><path fill-rule="evenodd" clip-rule="evenodd" d="M17.569 17.982c5.15 1.566 10.951-2.509 12.956-9.102.173-.57.312-1.14.418-1.706a14.39 14.39 0 0 1 1.45 11.647c-2.318 7.623-10.377 11.925-18 9.607-7.623-2.318-11.924-10.376-9.607-18a14.39 14.39 0 0 1 7.688-8.87c-.228.53-.43 1.081-.602 1.651-2.005 6.593.546 13.207 5.697 14.773Z"/></g></svg>