<svg xmlns="http://www.w3.org/2000/svg" width="46" height="46" fill="none"><path d="M1 10a9 9 0 0 1 9-9h26a9 9 0 0 1 9 9v26a9 9 0 0 1-9 9H10a9 9 0 0 1-9-9V10Z" fill="#151515" stroke="#383F3E" stroke-width="2"/><path d="M17.888 15a1.857 1.857 0 0 0-1.335.562A1.924 1.924 0 0 0 16 16.92c0 1.062.845 1.942 1.886 1.942 1.042 0 1.888-.88 1.888-1.94a1.95 1.95 0 0 0-.552-1.36A1.884 1.884 0 0 0 17.888 15Zm9.208 5.09c-1.585 0-2.491.845-2.927 1.684h-.045v-1.457H21V31h3.255v-5.288c0-1.393.103-2.74 1.796-2.74 1.67 0 1.694 1.589 1.694 2.828V31H31v-5.868c0-2.87-.606-5.041-3.904-5.041Zm-10.837.226V31h3.257V20.316H16.26Z" fill="#F6F6F6"/></svg>