<svg width="102" height="73" fill="none" xmlns="http://www.w3.org/2000/svg"><path d="M41.037 28.554h-6.648c-.256-1.42-.731-2.67-1.427-3.75a10.489 10.489 0 0 0-2.557-2.749 11.016 11.016 0 0 0-3.388-1.704 13.223 13.223 0 0 0-3.942-.575c-2.514 0-4.765.632-6.754 1.896-1.974 1.264-3.537 3.118-4.688 5.561-1.136 2.443-1.704 5.426-1.704 8.949 0 3.551.568 6.548 1.704 8.991 1.151 2.444 2.72 4.29 4.71 5.54 1.988 1.25 4.225 1.875 6.711 1.875 1.378 0 2.685-.185 3.92-.554a11.29 11.29 0 0 0 3.388-1.683 10.318 10.318 0 0 0 2.557-2.706c.71-1.08 1.2-2.316 1.47-3.708l6.648.022c-.355 2.145-1.044 4.12-2.067 5.923a16.347 16.347 0 0 1-3.899 4.645c-1.577 1.293-3.38 2.294-5.412 3.004-2.031.71-4.247 1.066-6.648 1.066-3.778 0-7.144-.895-10.1-2.685-2.954-1.804-5.283-4.382-6.988-7.734-1.69-3.353-2.535-7.351-2.535-11.996 0-4.66.852-8.658 2.557-11.996 1.704-3.352 4.034-5.923 6.988-7.713 2.955-1.804 6.314-2.706 10.078-2.706 2.316 0 4.475.334 6.478 1.002a17.096 17.096 0 0 1 5.433 2.897 15.94 15.94 0 0 1 3.984 4.645c1.051 1.818 1.762 3.9 2.13 6.243Z" fill="url(#a)"/><path d="M47.688 29V17h1.78v1.813h.126c.218-.594.614-1.076 1.187-1.446a3.495 3.495 0 0 1 1.938-.555c.135 0 .304.003.508.008.203.006.356.013.46.024v1.875a5.51 5.51 0 0 0-.43-.07 4.234 4.234 0 0 0-.694-.055c-.584 0-1.105.122-1.563.367a2.77 2.77 0 0 0-1.078 1 2.7 2.7 0 0 0-.39 1.445V29h-1.844Zm9.738 4.5c-.313 0-.591-.026-.836-.078a2.27 2.27 0 0 1-.508-.14l.469-1.626c.448.115.843.157 1.187.125.344-.031.649-.185.914-.46.271-.272.519-.712.742-1.321l.344-.938L55.301 17h2l3.312 9.563h.125L64.051 17h2l-5.094 13.75c-.23.62-.513 1.133-.852 1.54a3.192 3.192 0 0 1-1.18.913 3.638 3.638 0 0 1-1.5.297Zm11.058 0V17h1.782v1.906h.218c.136-.208.323-.474.563-.797.245-.328.594-.62 1.047-.875.458-.26 1.078-.39 1.86-.39 1.01 0 1.9.252 2.671.758.77.505 1.372 1.22 1.805 2.148.432.927.648 2.02.648 3.281 0 1.271-.216 2.373-.648 3.305-.433.927-1.032 1.646-1.797 2.156-.766.505-1.649.758-2.649.758-.77 0-1.388-.128-1.851-.383-.464-.26-.82-.555-1.07-.883a11.82 11.82 0 0 1-.579-.828h-.156V33.5h-1.844ZM70.297 23c0 .906.133 1.706.398 2.398.266.688.654 1.227 1.164 1.618.51.385 1.136.578 1.875.578.771 0 1.414-.203 1.93-.61.52-.411.912-.963 1.172-1.656.266-.698.398-1.474.398-2.328 0-.844-.13-1.604-.39-2.281-.255-.683-.643-1.222-1.164-1.617-.516-.401-1.164-.602-1.946-.602-.75 0-1.38.19-1.89.57-.51.375-.896.901-1.156 1.578-.26.672-.391 1.456-.391 2.352Zm16.812-6v1.563h-6.218V17h6.218Zm-4.406-2.875h1.844v11.438c0 .52.075.911.226 1.171.157.256.355.427.594.516.245.083.503.125.774.125.203 0 .37-.01.5-.031l.312-.063.375 1.657a3.74 3.74 0 0 1-.523.14 3.852 3.852 0 0 1-.852.078 3.71 3.71 0 0 1-1.531-.336 3.041 3.041 0 0 1-1.234-1.023c-.323-.459-.485-1.037-.485-1.735V14.126ZM94.63 29.25c-1.083 0-2.034-.258-2.852-.773-.812-.516-1.448-1.237-1.906-2.165-.453-.927-.68-2.01-.68-3.25 0-1.25.227-2.34.68-3.273.458-.932 1.094-1.656 1.906-2.172.818-.515 1.769-.773 2.852-.773s2.031.258 2.844.773c.817.516 1.453 1.24 1.906 2.172.458.932.687 2.023.687 3.273 0 1.24-.229 2.323-.687 3.25-.453.928-1.089 1.649-1.906 2.165-.813.515-1.76.773-2.844.773Zm0-1.656c.823 0 1.5-.211 2.031-.633.531-.422.925-.977 1.18-1.664a6.369 6.369 0 0 0 .383-2.235c0-.802-.128-1.549-.383-2.242-.255-.692-.649-1.252-1.18-1.68-.531-.427-1.208-.64-2.031-.64-.823 0-1.5.213-2.031.64-.532.428-.925.988-1.18 1.68a6.436 6.436 0 0 0-.383 2.242c0 .803.128 1.547.383 2.235.255.687.648 1.242 1.18 1.664.53.422 1.208.633 2.03.633ZM52.562 57.25c-1.083 0-2.033-.258-2.851-.773-.813-.516-1.448-1.237-1.906-2.164-.453-.928-.68-2.01-.68-3.25 0-1.25.227-2.342.68-3.274.458-.932 1.093-1.656 1.906-2.172.818-.515 1.768-.773 2.852-.773 1.083 0 2.03.258 2.843.773.818.516 1.453 1.24 1.907 2.172.458.932.687 2.023.687 3.273 0 1.24-.23 2.323-.688 3.25-.453.928-1.088 1.649-1.906 2.165-.812.515-1.76.773-2.843.773Zm0-1.656c.823 0 1.5-.211 2.032-.633.531-.422.924-.977 1.18-1.664a6.371 6.371 0 0 0 .382-2.234 6.42 6.42 0 0 0-.383-2.243c-.255-.692-.648-1.252-1.18-1.68-.53-.426-1.208-.64-2.03-.64-.823 0-1.5.214-2.032.64-.531.428-.924.988-1.18 1.68a6.436 6.436 0 0 0-.382 2.242c0 .803.127 1.547.383 2.235.255.687.648 1.242 1.18 1.664.53.422 1.208.633 2.03.633Zm12.784 1.656c-1 0-1.883-.253-2.649-.758-.765-.51-1.364-1.229-1.797-2.156-.432-.932-.648-2.034-.648-3.305 0-1.26.216-2.354.648-3.281.433-.927 1.034-1.643 1.805-2.148.77-.506 1.662-.758 2.672-.758.781 0 1.398.13 1.852.39.458.256.807.547 1.046.875.245.323.435.589.57.797h.157V41h1.844v16h-1.782v-1.844h-.218a11.82 11.82 0 0 1-.578.828c-.25.328-.607.623-1.07.883-.464.255-1.081.383-1.852.383Zm.25-1.656c.74 0 1.364-.193 1.875-.578.51-.391.898-.93 1.164-1.618.265-.692.398-1.492.398-2.398 0-.896-.13-1.68-.39-2.352-.26-.677-.646-1.203-1.157-1.578-.51-.38-1.14-.57-1.89-.57-.782 0-1.433.2-1.953.602-.516.395-.904.934-1.165 1.617-.255.677-.382 1.437-.382 2.281 0 .854.13 1.63.39 2.328.266.693.657 1.245 1.172 1.656.521.407 1.167.61 1.938.61ZM79.51 57.25c-1.157 0-2.154-.255-2.992-.766-.834-.515-1.477-1.234-1.93-2.156-.448-.927-.672-2.005-.672-3.234 0-1.23.224-2.313.672-3.25.453-.943 1.083-1.677 1.89-2.203.813-.532 1.76-.797 2.844-.797.625 0 1.242.104 1.852.312.61.209 1.164.547 1.664 1.016.5.463.898 1.078 1.195 1.844.297.765.445 1.708.445 2.828v.781h-9.25v-1.594h7.376c0-.677-.136-1.281-.407-1.812a3.062 3.062 0 0 0-1.14-1.258c-.49-.307-1.068-.461-1.735-.461-.734 0-1.37.182-1.906.547a3.61 3.61 0 0 0-1.227 1.406 4.13 4.13 0 0 0-.43 1.86v1.062c0 .906.157 1.675.47 2.305.317.625.757 1.101 1.32 1.43.562.322 1.216.484 1.96.484a3.99 3.99 0 0 0 1.313-.203c.396-.141.737-.35 1.024-.625a2.84 2.84 0 0 0 .664-1.047l1.781.5a3.95 3.95 0 0 1-.945 1.593c-.443.454-.99.808-1.64 1.063-.652.25-1.384.375-2.196.375Z" fill="#F7F7F7"/><defs><linearGradient id="a" x1="0" y1="73" x2="45" y2="73" gradientUnits="userSpaceOnUse"><stop stop-color="#3FE8AB"/><stop offset="1" stop-color="#78CDCD"/></linearGradient></defs></svg>