<svg xmlns="http://www.w3.org/2000/svg" width="236" height="41" fill="none"><g opacity=".6" fill="#B5B5B5"><path d="M67.33 34.746a5.225 5.225 0 0 1-5.027-3.797l-5.188-18.274a.103.103 0 0 0-.202.037c.288 3.718.433 6.61.433 8.68v9.674a3.68 3.68 0 1 1-7.361 0v-20.74a6.327 6.327 0 0 1 12.397-1.784l5.056 17.206a.112.112 0 0 0 .215 0l4.948-17.176a6.324 6.324 0 0 1 12.401 1.75V30.93a3.817 3.817 0 1 1-7.634 0v-9.664c0-.7.007-1.479.02-2.334.028-.846.125-2.905.29-6.178a.105.105 0 0 0-.205-.034L72.36 30.934a5.225 5.225 0 0 1-5.03 3.812Zm32.079-4.111a4.112 4.112 0 0 1-8.224 0V15.029a4.112 4.112 0 1 1 8.224 0v15.606ZM90.975 4.987c0-1.234.344-2.152 1.03-2.755.688-.603 1.795-.905 3.324-.905 1.528 0 2.642.309 3.344.926.7.617 1.051 1.528 1.051 2.734 0 2.411-1.465 3.617-4.395 3.617-2.903 0-4.354-1.206-4.354-3.617Zm33.324 29.759a4.11 4.11 0 0 1-4.111-4.111v-8.886c0-1.584-.232-2.776-.694-3.575-.449-.814-1.178-1.22-2.188-1.22-1.388 0-2.39.554-3.007 1.661-.617 1.108-.926 3.008-.926 5.7v6.32a4.11 4.11 0 1 1-8.223 0V14.547a3.63 3.63 0 0 1 3.629-3.63h1.016a2.2 2.2 0 0 1 2.075 1.473l.425 1.216a.384.384 0 0 0 .362.256.394.394 0 0 0 .327-.178c.69-1.033 1.619-1.815 2.787-2.346 1.248-.56 2.678-.84 4.29-.84 2.636 0 4.683.763 6.142 2.292 1.472 1.528 2.208 3.68 2.208 6.456v11.389a4.112 4.112 0 0 1-4.112 4.111Zm17.972-4.111a4.112 4.112 0 0 1-8.224 0V15.029a4.112 4.112 0 0 1 8.224 0v15.606Zm-8.434-25.648c0-1.234.344-2.152 1.031-2.755.687-.603 1.794-.905 3.323-.905 1.528 0 2.642.309 3.344.926.701.617 1.051 1.528 1.051 2.734 0 2.411-1.465 3.617-4.395 3.617-2.903 0-4.354-1.206-4.354-3.617Zm25.027 30.18c-3.897 0-6.856-1.052-8.875-3.155-2.005-2.103-3.007-5.124-3.007-9.064 0-3.954 1.086-7.018 3.26-9.191 2.173-2.173 5.264-3.26 9.274-3.26 1.706 0 3.35.23 4.932.69 1.674.486 2.375 2.367 1.73 3.986l-.189.476c-.595 1.496-2.302 2.167-3.844 1.704a8.652 8.652 0 0 0-2.629-.4c-1.332 0-2.362.52-3.091 1.557-.729 1.038-1.094 2.503-1.094 4.396 0 3.813 1.409 5.72 4.227 5.72.774 0 1.538-.072 2.291-.216 2.151-.412 4.65.971 4.65 3.161 0 .932-.458 1.824-1.294 2.236-1.837.907-3.95 1.36-6.341 1.36Zm35.123-12.387c0 3.897-1.052 6.94-3.155 9.127-2.089 2.173-5.019 3.26-8.791 3.26-3.617 0-6.499-1.115-8.644-3.344-2.131-2.23-3.197-5.244-3.197-9.044 0-3.883 1.045-6.898 3.134-9.043 2.103-2.16 5.048-3.239 8.833-3.239 2.342 0 4.41.498 6.205 1.493 1.794.996 3.175 2.426 4.143 4.29.981 1.851 1.472 4.018 1.472 6.5Zm-15.437 0c0 2.046.273 3.61.82 4.69.547 1.065 1.465 1.598 2.755 1.598 1.276 0 2.173-.533 2.692-1.599.533-1.08.799-2.643.799-4.69 0-2.033-.266-3.568-.799-4.605-.533-1.038-1.444-1.557-2.734-1.557-1.262 0-2.166.519-2.713 1.557-.547 1.023-.82 2.558-.82 4.605Zm28.413 7.855a4.112 4.112 0 1 1-8.223 0V15.029a4.112 4.112 0 0 1 8.223 0v15.606ZM198.53 4.987c0-1.234.343-2.152 1.03-2.755.687-.603 1.795-.905 3.323-.905 1.529 0 2.643.309 3.344.926.701.617 1.052 1.528 1.052 2.734 0 2.411-1.465 3.617-4.396 3.617-2.902 0-4.353-1.206-4.353-3.617Zm33.324 29.759a4.112 4.112 0 0 1-4.112-4.111v-8.886c0-1.584-.231-2.776-.694-3.575-.448-.814-1.177-1.22-2.187-1.22-1.388 0-2.39.554-3.007 1.661-.617 1.108-.926 3.008-.926 5.7v6.32a4.112 4.112 0 1 1-8.223 0V14.547a3.63 3.63 0 0 1 3.629-3.63h1.015c.935 0 1.767.591 2.075 1.473l.426 1.216a.383.383 0 0 0 .361.256.398.398 0 0 0 .328-.178c.69-1.033 1.619-1.815 2.787-2.346 1.248-.56 2.678-.84 4.29-.84 2.636 0 4.683.763 6.141 2.292 1.473 1.528 2.209 3.68 2.209 6.456v11.389a4.112 4.112 0 0 1-4.112 4.111Z"/><path fill-rule="evenodd" clip-rule="evenodd" d="M19.741 40.407c10.903 0 19.742-8.839 19.742-19.741C39.483 9.763 30.644.924 19.742.924 8.838.924 0 9.763 0 20.666c0 10.902 8.839 19.741 19.741 19.741Zm3.312-12.091c-.604.622-1.478.992-2.621 1.111l.48-6.504c.42.137.814.288 1.18.452.375.165.7.366.975.604.274.229.49.499.645.81.164.311.247.681.247 1.111 0 .98-.302 1.785-.906 2.416Zm-4.666-14.039c.42-.174.92-.288 1.496-.343l-.426 5.887a11.797 11.797 0 0 1-1.139-.48 4.443 4.443 0 0 1-.919-.604 2.66 2.66 0 0 1-.604-.823 2.52 2.52 0 0 1-.22-1.085c0-.356.065-.7.193-1.029a2.44 2.44 0 0 1 .59-.878 3.467 3.467 0 0 1 1.029-.645Zm4.652 6.752c-.64-.247-1.29-.471-1.949-.673l.467-6.395c.42.073.8.183 1.14.33.338.146.635.293.891.439.265.137.49.26.672.37.193.11.353.165.48.165.257 0 .481-.15.673-.453l.645-.988a7.751 7.751 0 0 0-1.852-1.358c-.696-.385-1.524-.64-2.484-.769l.192-2.703h-.988a.684.684 0 0 0-.522.22.763.763 0 0 0-.22.493l-.137 1.921c-.96.037-1.816.215-2.566.536-.74.32-1.367.732-1.88 1.235a5.25 5.25 0 0 0-1.153 1.715c-.265.64-.398 1.3-.398 1.976 0 .897.151 1.642.453 2.237.302.595.7 1.093 1.194 1.496a6.549 6.549 0 0 0 1.675.96c.622.238 1.253.453 1.893.645l-.507 6.986c-.595-.083-1.107-.225-1.537-.426a9.582 9.582 0 0 1-1.098-.631l-.81-.576c-.22-.165-.42-.247-.604-.247a.745.745 0 0 0-.398.11 1.07 1.07 0 0 0-.302.274l-.81 1.235a8.374 8.374 0 0 0 2.375 1.688c.924.439 1.93.718 3.019.837l-.22 3.046h.988c.21 0 .385-.073.522-.22a.763.763 0 0 0 .22-.493l.164-2.292c.988-.064 1.867-.27 2.635-.617.778-.348 1.432-.8 1.962-1.359a5.665 5.665 0 0 0 1.208-1.935 6.4 6.4 0 0 0 .425-2.333c0-.85-.16-1.555-.48-2.113a4.276 4.276 0 0 0-1.235-1.414 7.013 7.013 0 0 0-1.743-.92Z"/></g></svg>