<svg width="691" height="691" fill="none" xmlns="http://www.w3.org/2000/svg"><circle opacity=".96" cx="345.5" cy="345.5" r="306.5" fill="url(#a)"/><circle opacity=".2" cx="345.5" cy="345.5" r="342.5" stroke="#C5E6E4" stroke-width="6"/><rect x="237.5" y="125.5" width="216" height="439" rx="20.5" stroke="#151515" stroke-width="9"/><g filter="url(#b)"><rect x="242" y="130" width="207" height="430" rx="16" fill="#2B2B2B"/></g><path d="M286 130h125v8a6 6 0 0 1-6 6H292a6 6 0 0 1-6-6v-8Z" fill="#151515"/><rect x="334" y="135" width="28" height="1" rx=".5" fill="#525252"/><path d="M330.255 319.068H318.91c-.437-2.408-1.249-4.527-2.437-6.357a17.853 17.853 0 0 0-4.363-4.66 18.863 18.863 0 0 0-5.782-2.889c-2.109-.651-4.352-.976-6.728-.976-4.291 0-8.133 1.072-11.527 3.215-3.37 2.143-6.036 5.286-8 9.428-1.94 4.142-2.909 9.199-2.909 15.171 0 6.02.969 11.101 2.909 15.243 1.964 4.142 4.642 7.273 8.036 9.392 3.394 2.119 7.213 3.179 11.455 3.179 2.352 0 4.582-.313 6.691-.939 2.133-.651 4.061-1.602 5.782-2.854a17.53 17.53 0 0 0 4.364-4.588c1.212-1.83 2.048-3.925 2.509-6.285l11.345.036c-.606 3.637-1.782 6.984-3.527 10.042a27.754 27.754 0 0 1-6.655 7.875c-2.691 2.191-5.769 3.889-9.236 5.093-3.467 1.204-7.249 1.806-11.346 1.806-6.448 0-12.194-1.517-17.236-4.551-5.043-3.059-9.019-7.429-11.928-13.113C267.442 346.653 266 339.875 266 332c0-7.899 1.455-14.677 4.364-20.337 2.909-5.683 6.885-10.041 11.927-13.076 5.043-3.058 10.776-4.587 17.2-4.587 3.952 0 7.637.566 11.055 1.698 3.442 1.107 6.533 2.745 9.273 4.912 2.739 2.143 5.006 4.768 6.8 7.875 1.794 3.082 3.006 6.61 3.636 10.583Z" fill="url(#c)"/><path d="M341.606 319.825v-20.344h3.04v3.073h.213c.373-1.007 1.049-1.824 2.027-2.451.978-.627 2.08-.94 3.306-.94.232 0 .52.004.867.013s.609.022.787.04v3.179a9.014 9.014 0 0 0-.734-.12 7.343 7.343 0 0 0-1.186-.092c-.996 0-1.885.207-2.667.622a4.716 4.716 0 0 0-1.84 1.696c-.444.715-.667 1.532-.667 2.45v12.874h-3.146Zm16.62 7.628a6.967 6.967 0 0 1-1.427-.132c-.418-.079-.706-.159-.866-.238l.8-2.755c.764.194 1.44.265 2.026.212.587-.053 1.107-.314 1.56-.782.462-.459.885-1.205 1.267-2.238l.587-1.589-7.574-20.45h3.414l5.653 16.211h.213l5.654-16.211h3.413l-8.693 23.31c-.392 1.051-.876 1.921-1.454 2.61-.578.697-1.249 1.214-2.013 1.549-.756.336-1.609.503-2.56.503Zm18.873 0v-27.972h3.04v3.232h.374c.231-.354.551-.804.96-1.351.418-.557 1.013-1.051 1.786-1.484.783-.441 1.84-.662 3.174-.662 1.724 0 3.244.428 4.56 1.285 1.315.856 2.342 2.07 3.08 3.642s1.107 3.426 1.107 5.563c0 2.154-.369 4.022-1.107 5.602-.738 1.572-1.76 2.79-3.067 3.656-1.306.856-2.813 1.284-4.52 1.284-1.315 0-2.369-.216-3.16-.649-.791-.441-1.4-.94-1.827-1.496a20.128 20.128 0 0 1-.986-1.404h-.267v10.754h-3.147Zm3.094-17.8c0 1.536.226 2.891.68 4.066.453 1.165 1.115 2.079 1.986 2.741.872.654 1.938.981 3.201.981 1.315 0 2.413-.345 3.293-1.034.889-.697 1.555-1.633 2-2.807.453-1.184.68-2.499.68-3.947 0-1.431-.222-2.72-.667-3.868-.435-1.156-1.098-2.07-1.986-2.741-.88-.68-1.987-1.02-3.32-1.02-1.281 0-2.356.322-3.227.967-.871.635-1.529 1.527-1.974 2.675-.444 1.139-.666 2.468-.666 3.987Zm28.693-10.172v2.649h-10.613v-2.649h10.613Zm-7.52-4.874h3.147v19.39c0 .883.129 1.545.387 1.987.266.432.604.724 1.013.874.418.141.858.212 1.32.212.347 0 .631-.018.853-.053l.534-.106.64 2.808a6.455 6.455 0 0 1-.894.238c-.382.088-.866.132-1.453.132a6.36 6.36 0 0 1-2.613-.569 5.183 5.183 0 0 1-2.107-1.735c-.551-.777-.827-1.757-.827-2.94v-20.238Zm20.354 25.641c-1.849 0-3.471-.437-4.867-1.311-1.387-.874-2.471-2.097-3.253-3.669-.774-1.571-1.16-3.408-1.16-5.509 0-2.119.386-3.969 1.16-5.55.782-1.58 1.866-2.808 3.253-3.682 1.396-.874 3.018-1.311 4.867-1.311 1.849 0 3.467.437 4.853 1.311 1.396.874 2.48 2.102 3.254 3.682.782 1.581 1.173 3.431 1.173 5.55 0 2.101-.391 3.938-1.173 5.509-.774 1.572-1.858 2.795-3.254 3.669-1.386.874-3.004 1.311-4.853 1.311Zm0-2.807c1.404 0 2.56-.358 3.467-1.073.906-.715 1.577-1.656 2.013-2.821.436-1.166.653-2.429.653-3.788 0-1.36-.217-2.627-.653-3.802-.436-1.174-1.107-2.123-2.013-2.847-.907-.724-2.063-1.086-3.467-1.086-1.405 0-2.56.362-3.467 1.086-.906.724-1.578 1.673-2.013 2.847-.436 1.175-.653 2.442-.653 3.802 0 1.359.217 2.622.653 3.788.435 1.165 1.107 2.106 2.013 2.821.907.715 2.062 1.073 3.467 1.073Zm-71.794 50.276c-1.849 0-3.471-.437-4.867-1.311-1.387-.874-2.471-2.097-3.253-3.669-.774-1.572-1.16-3.408-1.16-5.51 0-2.119.386-3.969 1.16-5.549.782-1.581 1.866-2.808 3.253-3.682 1.396-.874 3.018-1.311 4.867-1.311 1.849 0 3.466.437 4.853 1.311 1.396.874 2.48 2.101 3.254 3.682.782 1.58 1.173 3.43 1.173 5.549 0 2.102-.391 3.938-1.173 5.51-.774 1.572-1.858 2.795-3.254 3.669-1.387.874-3.004 1.311-4.853 1.311Zm0-2.808c1.404 0 2.56-.357 3.466-1.073.907-.715 1.578-1.655 2.014-2.821.435-1.165.653-2.428.653-3.788 0-1.359-.218-2.626-.653-3.801-.436-1.174-1.107-2.123-2.014-2.847-.906-.724-2.062-1.086-3.466-1.086-1.405 0-2.56.362-3.467 1.086-.907.724-1.578 1.673-2.013 2.847-.436 1.175-.654 2.442-.654 3.801 0 1.36.218 2.623.654 3.788.435 1.166 1.106 2.106 2.013 2.821.907.716 2.062 1.073 3.467 1.073Zm21.817 2.808c-1.707 0-3.214-.428-4.52-1.285-1.307-.865-2.329-2.083-3.067-3.655-.738-1.581-1.107-3.448-1.107-5.603 0-2.136.369-3.991 1.107-5.562.738-1.572 1.764-2.786 3.08-3.643 1.316-.856 2.836-1.284 4.56-1.284 1.333 0 2.387.22 3.16.662.782.433 1.378.927 1.787 1.483.418.548.742.998.973 1.351h.267v-10.013h3.146v27.125h-3.04v-3.125h-.373c-.231.37-.56.838-.987 1.403-.426.557-1.035 1.056-1.826 1.497-.791.433-1.845.649-3.16.649Zm.426-2.808c1.263 0 2.329-.326 3.2-.98.872-.662 1.534-1.576 1.987-2.741.453-1.175.68-2.53.68-4.067 0-1.518-.222-2.847-.667-3.986-.444-1.148-1.102-2.04-1.973-2.676-.871-.644-1.947-.966-3.227-.966-1.333 0-2.444.339-3.333 1.019-.88.671-1.542 1.585-1.987 2.742-.435 1.148-.653 2.437-.653 3.867 0 1.448.222 2.764.667 3.947.453 1.175 1.12 2.111 2 2.808.889.689 1.991 1.033 3.306 1.033Zm23.747 2.808c-1.973 0-3.675-.433-5.106-1.298-1.423-.874-2.52-2.093-3.294-3.655-.764-1.572-1.146-3.4-1.146-5.484 0-2.083.382-3.92 1.146-5.509.774-1.599 1.849-2.844 3.227-3.735 1.387-.901 3.004-1.351 4.853-1.351a9.77 9.77 0 0 1 3.16.529 7.857 7.857 0 0 1 2.84 1.722c.854.786 1.534 1.828 2.04 3.126.507 1.298.76 2.896.76 4.795v1.324H388.61v-2.702h12.586c0-1.148-.231-2.172-.693-3.073a5.2 5.2 0 0 0-1.947-2.132c-.835-.521-1.822-.781-2.96-.781-1.253 0-2.338.309-3.253.927a6.1 6.1 0 0 0-2.093 2.384 6.964 6.964 0 0 0-.734 3.152v1.801c0 1.537.267 2.839.8 3.907.542 1.06 1.294 1.868 2.254 2.424.96.548 2.075.821 3.346.821.827 0 1.574-.115 2.24-.344a4.808 4.808 0 0 0 1.747-1.06c.489-.476.867-1.068 1.133-1.774l3.04.847a6.683 6.683 0 0 1-1.613 2.702c-.756.768-1.689 1.369-2.8 1.801-1.111.424-2.36.636-3.747.636Z" fill="#F7F7F7"/><defs><linearGradient id="a" x1="39" y1="652" x2="652" y2="652" gradientUnits="userSpaceOnUse"><stop stop-color="#3FE8AB"/><stop offset="1" stop-color="#78CDCD"/></linearGradient><linearGradient id="c" x1="266" y1="370" x2="431" y2="370" gradientUnits="userSpaceOnUse"><stop stop-color="#3FE8AB"/><stop offset="1" stop-color="#78CDCD"/></linearGradient><filter id="b" x="188" y="80" width="315" height="538" filterUnits="userSpaceOnUse" color-interpolation-filters="sRGB"><feFlood flood-opacity="0" result="BackgroundImageFix"/><feColorMatrix in="SourceAlpha" values="0 0 0 0 0 0 0 0 0 0 0 0 0 0 0 0 0 0 127 0" result="hardAlpha"/><feOffset dy="4"/><feGaussianBlur stdDeviation="27"/><feComposite in2="hardAlpha" operator="out"/><feColorMatrix values="0 0 0 0 0 0 0 0 0 0 0 0 0 0 0 0 0 0 0.45 0"/><feBlend in2="BackgroundImageFix" result="effect1_dropShadow_47_42"/><feBlend in="SourceGraphic" in2="effect1_dropShadow_47_42" result="shape"/></filter></defs></svg>