<svg width="272" height="45" fill="none" xmlns="http://www.w3.org/2000/svg"><g opacity=".6"><path d="m86.187 27.115.258 8.786h-7.58L69 18.715h-.431l-.043 7.409.258 9.777h-6.331l.344-8.183-.344-19.598h7.537l9.907 17.186h.43l-.172-16.928 6.418-.388-.387 19.125Zm22.382-.173-11.285.087c.2 1.493.718 2.598 1.55 3.316.833.718 2.01 1.077 3.532 1.077 1.522 0 3.532-.445 6.03-1.335l.517.344-1.033 4.867c-2.298.718-4.379 1.077-6.246 1.077-3.302 0-5.9-.933-7.796-2.8-1.866-1.866-2.8-4.436-2.8-7.71 0-3.273.905-5.843 2.714-7.71 1.809-1.895 4.264-2.842 7.365-2.842 2.671 0 4.738.718 6.203 2.153 1.493 1.436 2.239 3.432 2.239 5.987 0 .833-.086 1.709-.258 2.628l-.732.861Zm-4.911-4.22c0-1.982-.861-2.973-2.584-2.973-.976 0-1.78.33-2.412.99-.632.633-1.062 1.552-1.292 2.758l6.202-.173.086-.603Zm16.737-4.48 2.153 3.747 2.24-4.006 1.12-2.196h5.901l-5.599 9.906 5.771 9.993-7.193.517-1.034-2.757-2.153-3.876-2.412 4.178-.991 2.153h-5.944l5.6-10.079-5.643-9.906 7.279-.302.905 2.628Zm24.407 12.663c.861 0 1.78-.215 2.757-.646l.473.517-.646 3.92c-1.435.803-2.929 1.306-4.479 1.507-2.096-.115-3.69-.66-4.781-1.637-1.091-1.005-1.637-2.369-1.637-4.092l.215-3.92-.043-6.59h-2.67l-.216-.344.302-3.704h2.541V12.47l6.246-1.852.474.43-.173 4.868h4.738l.216.387-.302 3.662h-4.781l-.258 8.7c0 .833.143 1.422.43 1.766.316.316.847.474 1.594.474Zm19.166-22.828c2.986 0 5.283.746 6.891 2.24 1.637 1.492 2.455 3.617 2.455 6.374 0 2.154-.488 4.049-1.464 5.686-.977 1.608-2.355 2.857-4.135 3.747-1.78.89-3.848 1.335-6.203 1.335h-2.498l.259 8.442h-7.021l.388-8.227-.388-19.554 11.716-.043Zm-1.206 14.343c1.091-.374 1.895-.962 2.412-1.766.545-.833.818-1.924.818-3.274 0-1.435-.359-2.498-1.077-3.187-.689-.69-1.78-1.063-3.273-1.12l-2.326.13-.216 9.044 3.662.173Zm21.248 4.565.301 8.916h-6.805l.344-8.27-.258-21.493 6.762-.473-.344 21.32Zm14.837-11.672c2.384 0 4.236.517 5.557 1.55 1.321 1.005 1.981 2.456 1.981 4.35 0 .661-.029 1.422-.086 2.284a82.35 82.35 0 0 0-.129 2.455c-.144 2.067-.216 3.488-.216 4.264 0 .402.058.689.173.861.143.172.373.259.689.259.258 0 .574-.058.947-.173l.474.388-.603 3.575c-.947.66-2.11 1.048-3.489 1.163-.861-.086-1.593-.388-2.196-.904-.603-.517-1.034-1.25-1.293-2.197h-.301c-1.436 1.522-2.9 2.57-4.393 3.144-2.125-.029-3.805-.603-5.04-1.723-1.206-1.12-1.809-2.642-1.809-4.566 0-2.957 1.551-4.694 4.652-5.211l6.375-1.077v-1.25c0-.89-.201-1.521-.603-1.894-.374-.402-.991-.603-1.853-.603-.861 0-1.794.186-2.799.56-.977.373-2.111.961-3.403 1.766l-.431-.302-.775-4.436a18.43 18.43 0 0 1 4.178-1.68 16.856 16.856 0 0 1 4.393-.603Zm-2.412 12.361c-.43.087-.761.259-.99.517-.201.259-.302.646-.302 1.163 0 .69.172 1.22.517 1.594.373.373.876.56 1.508.56.918 0 1.895-.488 2.929-1.464l.043-3.102-3.705.732Zm28.398-3.79c.058-1.981-.746-2.972-2.412-2.972-1.005 0-2.096.43-3.273 1.292v4.781l.301 8.916h-6.805l.301-8.227-.258-11.5 6.504-.517v2.972h.258c1.551-1.464 3.274-2.512 5.169-3.144 2.153 0 3.79.503 4.91 1.508 1.149.976 1.709 2.383 1.68 4.22l-.172 5.772.258 8.916h-6.805l.344-12.017Zm28.392 3.058-11.285.087c.201 1.493.718 2.598 1.55 3.316.833.718 2.01 1.077 3.532 1.077 1.522 0 3.532-.445 6.03-1.335l.517.344-1.034 4.867c-2.297.718-4.379 1.077-6.245 1.077-3.302 0-5.901-.933-7.796-2.8-1.867-1.866-2.8-4.436-2.8-7.71 0-3.273.905-5.843 2.714-7.71 1.809-1.895 4.264-2.842 7.365-2.842 2.671 0 4.738.718 6.203 2.153 1.493 1.436 2.239 3.432 2.239 5.987 0 .833-.086 1.709-.258 2.628l-.732.861Zm-4.911-4.22c0-1.982-.861-2.973-2.584-2.973-.976 0-1.78.33-2.412.99-.632.633-1.062 1.552-1.292 2.758l6.202-.173.086-.603Zm19.493 8.183c.862 0 1.781-.215 2.757-.646l.474.517-.646 3.92c-1.436.803-2.929 1.306-4.48 1.507-2.096-.115-3.69-.66-4.781-1.637-1.091-1.005-1.637-2.369-1.637-4.092l.216-3.92-.043-6.59h-2.671l-.215-.344.301-3.704h2.542V12.47l6.245-1.852.474.43-.172 4.868h4.738l.215.387-.302 3.662h-4.781l-.258 8.7c0 .833.143 1.422.431 1.766.316.316.847.474 1.593.474Z" fill="#B5B5B5"/><path d="M4.359 20.273c1.686-6.78 7.083-17.947 20.237-17.947 13.154 0 19.394 11.167 20.237 17.947m0 0-6.324-3.59m6.324 3.59 3.794-5.983m-3.589 10.768c-1.64 6.78-6.891 17.947-19.69 17.947-12.799 0-18.87-11.167-19.69-17.947m0 0 6.153 3.59m-6.153-3.59-3.692 5.983" stroke="#B5B5B5" stroke-width="3"/></g></svg>