<svg width="146" height="145" fill="none" xmlns="http://www.w3.org/2000/svg"><circle opacity=".3" cx="73" cy="72.5" r="72.5" fill="url(#a)"/><g clip-path="url(#b)"><path d="M95.446 79.452c-2.227-1.27-4.739-1.648-7.23-1.743-2.07-.06-5.18-1.425-5.18-5.207 0-2.82 2.277-5.095 5.212-5.207 2.49-.095 5.003-.473 7.227-1.755a13.159 13.159 0 0 0 4.82-17.964 13.205 13.205 0 0 0-18.026-4.798 13.085 13.085 0 0 0-6.574 11.393c0 2.551.914 4.89 2.071 7.086.977 1.825 1.447 5.238-1.866 7.156-2.49 1.425-5.597.535-7.135-1.947-1.301-2.103-2.872-4.062-5.097-5.332-6.294-3.64-14.354-1.478-17.963 4.798a13.16 13.16 0 0 0 4.828 17.965 13.2 13.2 0 0 0 13.145 0c2.215-1.274 3.786-3.23 5.087-5.331 1.065-1.715 3.763-3.908 7.135-1.951 2.494 1.415 3.262 4.565 1.866 7.168-1.147 2.152-2.07 4.522-2.07 7.074 0 7.26 5.888 13.135 13.145 13.145a13.153 13.153 0 0 0 13.145-13.145 13.09 13.09 0 0 0-6.542-11.403l.002-.002Z" fill="#42DDA7"/></g><defs><linearGradient id="a" x1=".5" y1="145" x2="145.5" y2="145" gradientUnits="userSpaceOnUse"><stop stop-color="#3FE8AB"/><stop offset="1" stop-color="#78CDCD"/></linearGradient><clipPath id="b"><path fill="#fff" transform="translate(41.5 41)" d="M0 0h63v63H0z"/></clipPath></defs></svg>