<svg xmlns="http://www.w3.org/2000/svg" width="174" height="31" fill="none"><g opacity=".6" fill="#B5B5B5"><path d="M42.457 5.448h7.705v24.748h4.983V5.448h7.747V.883H42.457v4.565ZM69.179 15.54c0-1.508.237-2.89.712-4.146.502-1.284 1.2-2.387 2.094-3.308a9.082 9.082 0 0 1 3.14-2.178c1.229-.53 2.583-.795 4.062-.795 1.452 0 2.778.265 3.978.795a8.99 8.99 0 0 1 3.183 2.178c.894.921 1.577 2.024 2.052 3.308.475 1.256.712 2.638.712 4.146 0 1.507-.251 2.903-.754 4.187a9.853 9.853 0 0 1-2.052 3.309 9.782 9.782 0 0 1-3.182 2.177c-1.2.503-2.527.754-3.978.754-1.452 0-2.792-.251-4.02-.754a9.905 9.905 0 0 1-3.141-2.177 10.423 10.423 0 0 1-2.094-3.309c-.475-1.284-.712-2.68-.712-4.187Zm-5.235 0c0 2.177.377 4.201 1.131 6.072a14.962 14.962 0 0 0 3.183 4.857 15.045 15.045 0 0 0 4.815 3.225c1.843.754 3.867 1.13 6.073 1.13 2.205 0 4.229-.376 6.072-1.13 1.87-.782 3.49-1.857 4.857-3.225a14.96 14.96 0 0 0 3.183-4.857c.753-1.87 1.13-3.895 1.13-6.072 0-2.178-.377-4.188-1.13-6.03-.754-1.87-1.829-3.476-3.225-4.816-1.368-1.368-2.987-2.429-4.857-3.183-1.843-.753-3.853-1.13-6.03-1.13-2.178 0-4.188.377-6.03 1.13a14.963 14.963 0 0 0-4.858 3.183c-1.368 1.34-2.43 2.945-3.183 4.816-.754 1.842-1.13 3.852-1.13 6.03ZM100.45.883v29.313h4.942V.883h-4.942Zm2.931 4.355h5.905c1.145 0 2.136.182 2.973.545.838.363 1.494.893 1.968 1.591.475.698.712 1.577.712 2.638 0 1.033-.237 1.912-.712 2.638-.474.698-1.13 1.229-1.968 1.592-.837.335-1.828.502-2.973.502h-5.905V19.1h5.905c2.15 0 4.006-.363 5.569-1.088 1.564-.754 2.778-1.801 3.644-3.141.865-1.368 1.298-2.987 1.298-4.858 0-1.87-.433-3.49-1.298-4.857-.866-1.368-2.08-2.415-3.644-3.141-1.563-.754-3.419-1.13-5.569-1.13h-5.905v4.354ZM125.707.883v19.682c0 1.62.251 3.07.753 4.355.531 1.284 1.271 2.373 2.22 3.266.949.894 2.08 1.578 3.392 2.052 1.312.475 2.75.712 4.313.712 1.563 0 3.001-.237 4.313-.712 1.312-.474 2.443-1.158 3.392-2.052.949-.893 1.675-1.982 2.178-3.266.53-1.284.795-2.736.795-4.355V.883h-4.941v19.473c0 1.2-.223 2.26-.67 3.182a4.661 4.661 0 0 1-1.926 2.094c-.838.502-1.885.754-3.141.754s-2.317-.252-3.183-.754a4.994 4.994 0 0 1-1.926-2.094c-.419-.921-.628-1.982-.628-3.182V.883h-4.941Zm28.946 0v29.313h4.942V.883h-4.942Zm2.932 4.355h5.904c1.145 0 2.136.182 2.973.545.838.363 1.494.893 1.969 1.591.474.698.711 1.577.711 2.638 0 1.033-.237 1.912-.711 2.638-.475.698-1.131 1.229-1.969 1.592-.837.335-1.828.502-2.973.502h-5.904V19.1h5.904c2.15 0 4.006-.363 5.57-1.088 1.563-.754 2.777-1.801 3.643-3.141.865-1.368 1.298-2.987 1.298-4.858 0-1.87-.433-3.49-1.298-4.857-.866-1.368-2.08-2.415-3.643-3.141-1.564-.754-3.42-1.13-5.57-1.13h-5.904v4.354Z"/><path fill-rule="evenodd" clip-rule="evenodd" d="M14.14 1.59H.246v29.28h31.108V1.59H17.46l7.056 7.776h-5.971V27.21h-5.49V9.367H7.084l7.056-7.776Z"/></g></svg>