<svg xmlns="http://www.w3.org/2000/svg" width="46" height="46" fill="none"><path d="M1 10a9 9 0 0 1 9-9h26a9 9 0 0 1 9 9v26a9 9 0 0 1-9 9H10a9 9 0 0 1-9-9V10Z" fill="#151515" stroke="#383F3E" stroke-width="2"/><path d="M31 18.542c-.6.265-1.235.439-1.885.515a3.292 3.292 0 0 0 1.442-1.814 6.613 6.613 0 0 1-2.083.797 3.283 3.283 0 0 0-5.593 2.99 9.31 9.31 0 0 1-6.768-3.428c-.292.5-.446 1.07-.444 1.65 0 1.138.578 2.143 1.46 2.731a3.265 3.265 0 0 1-1.486-.412v.042a3.279 3.279 0 0 0 2.633 3.218c-.483.132-.99.152-1.483.057a3.286 3.286 0 0 0 3.066 2.28A6.585 6.585 0 0 1 15 28.524 9.286 9.286 0 0 0 20.031 30c6.039 0 9.342-5 9.342-9.337 0-.14-.006-.284-.011-.424A6.722 6.722 0 0 0 31 18.543Z" fill="#F6F6F6"/></svg>