<svg xmlns="http://www.w3.org/2000/svg" width="46" height="46" fill="none"><path d="M1 10a9 9 0 0 1 9-9h26a9 9 0 0 1 9 9v26a9 9 0 0 1-9 9H10a9 9 0 0 1-9-9V10Z" fill="#151515" stroke="#383F3E" stroke-width="2"/><path d="M32.6 19.03a2.311 2.311 0 0 0-.615-1.039 2.389 2.389 0 0 0-1.062-.6C29.444 17 23.5 17 23.5 17s-5.944 0-7.423.391a2.389 2.389 0 0 0-1.062.6 2.311 2.311 0 0 0-.614 1.039 23.439 23.439 0 0 0-.4 4.47c-.01 1.5.124 2.996.4 4.47.108.393.32.751.614 1.039.294.287.66.494 1.062.6C17.556 30 23.5 30 23.5 30s5.944 0 7.423-.391a2.389 2.389 0 0 0 1.062-.6c.294-.288.506-.646.614-1.039.276-1.474.41-2.97.4-4.47.01-1.5-.124-2.996-.4-4.47Zm-11 7.256v-5.572l4.933 2.786-4.933 2.786Z" fill="#F6F6F6"/></svg>