<svg xmlns="http://www.w3.org/2000/svg" width="46" height="46" viewBox="0 0 46 46" fill="none">
  <path d="M1 10C1 5.02944 5.02944 1 10 1H36C40.9706 1 45 5.02944 45 10V36C45 40.9706 40.9706 45 36 45H10C5.02944 45 1 40.9706 1 36V10Z" fill="#151515" stroke="#383F3E" stroke-width="2"/>
  <path d="M20.4107 15C17.9895 15 16 17.1193 16 19.7047V26.2953C16 28.8778 17.9868 31 20.4107 31H26.5893C29.0105 31 31 28.8807 31 26.2953V19.7055C31 17.1222 29.0132 15 26.5893 15H20.4107ZM20.4107 16.4545H26.5893C26.9896 16.454 27.3861 16.5376 27.756 16.7008C28.1259 16.8639 28.4621 17.1033 28.7451 17.4052C29.0282 17.7071 29.2526 18.0657 29.4055 18.4603C29.5585 18.8548 29.6369 19.2777 29.6364 19.7047V26.2953C29.6369 26.7223 29.5585 27.1452 29.4055 27.5397C29.2526 27.9343 29.0282 28.2929 28.7451 28.5948C28.4621 28.8967 28.1259 29.1361 27.756 29.2992C27.3861 29.4624 26.9896 29.546 26.5893 29.5455H20.4114C20.011 29.5461 19.6145 29.4625 19.2445 29.2994C18.8745 29.1363 18.5383 28.897 18.2551 28.595C17.972 28.2931 17.7475 27.9345 17.5945 27.5399C17.4416 27.1453 17.3631 26.7223 17.3636 26.2953V19.7055C17.363 19.2784 17.4414 18.8554 17.5943 18.4608C17.7472 18.0661 17.9716 17.7075 18.2547 17.4055C18.5377 17.1035 18.8739 16.864 19.2438 16.7009C19.6138 16.5377 20.0103 16.454 20.4107 16.4545ZM27.5268 18.0458C27.4456 18.0454 27.3651 18.0622 27.29 18.0952C27.2149 18.1282 27.1466 18.1767 27.0892 18.2379C27.0318 18.2992 26.9863 18.372 26.9554 18.4521C26.9245 18.5322 26.9087 18.6181 26.9091 18.7047C26.9091 19.0713 27.1832 19.3636 27.5268 19.3636C27.6081 19.3641 27.6887 19.3474 27.7638 19.3145C27.839 19.2815 27.9074 19.233 27.9649 19.1718C28.0224 19.1105 28.0679 19.0377 28.0989 18.9575C28.1298 18.8773 28.1456 18.7914 28.1452 18.7047C28.1456 18.618 28.1298 18.5321 28.0989 18.4519C28.0679 18.3718 28.0224 18.299 27.9649 18.2377C27.9074 18.1764 27.839 18.1279 27.7638 18.095C27.6887 18.062 27.6081 18.0453 27.5268 18.0458ZM23.5 18.6364C21.25 18.6364 19.4091 20.6 19.4091 23C19.4091 25.4 21.25 27.3636 23.5 27.3636C25.75 27.3636 27.5909 25.4 27.5909 23C27.5909 20.6 25.75 18.6364 23.5 18.6364ZM23.5 20.0909C25.0157 20.0909 26.2273 21.3833 26.2273 23C26.2273 24.6167 25.0157 25.9091 23.5 25.9091C21.9843 25.9091 20.7727 24.6167 20.7727 23C20.7727 21.3833 21.9843 20.0909 23.5 20.0909Z" fill="#F6F6F6"/>
</svg>