<svg xmlns="http://www.w3.org/2000/svg" width="46" height="46" viewBox="0 0 46 46" fill="none">
  <path d="M1 10C1 5.02944 5.02944 1 10 1H36C40.9706 1 45 5.02944 45 10V36C45 40.9706 40.9706 45 36 45H10C5.02944 45 1 40.9706 1 36V10Z" fill="#151515" stroke="#383F3E" stroke-width="2"/>
  <path d="M17.8879 15C17.6401 14.9998 17.3947 15.0493 17.1657 15.1457C16.9367 15.2421 16.7286 15.3835 16.5533 15.5618C16.378 15.7401 16.2389 15.9518 16.1439 16.1849C16.049 16.4179 16.0001 16.6677 16 16.92C16 17.9818 16.845 18.8618 17.8857 18.8618C18.9279 18.8618 19.7736 17.9818 19.7736 16.9215C19.7738 16.6692 19.7251 16.4194 19.6304 16.1863C19.5358 15.9531 19.3969 15.7413 19.2218 15.5629C19.0466 15.3844 18.8387 15.2429 18.6098 15.1463C18.3809 15.0497 18.1356 15 17.8879 15ZM27.0964 20.0909C25.5114 20.0909 24.605 20.9345 24.1693 21.7738H24.1236V20.3171H21V31H24.255V25.712C24.255 24.3185 24.3579 22.9716 26.0514 22.9716C27.7207 22.9716 27.745 24.5607 27.745 25.8V31H31V25.1324C31 22.2611 30.3936 20.0909 27.0964 20.0909ZM16.2593 20.3164V31H19.5164V20.3164H16.2593Z" fill="#F6F6F6"/>
</svg>