<svg xmlns="http://www.w3.org/2000/svg" width="46" height="46" viewBox="0 0 46 46" fill="none">
  <path d="M1 10C1 5.02944 5.02944 1 10 1H36C40.9706 1 45 5.02944 45 10V36C45 40.9706 40.9706 45 36 45H10C5.02944 45 1 40.9706 1 36V10Z" fill="#151515" stroke="#383F3E" stroke-width="2"/>
  <path d="M31 18.5421C30.4009 18.8072 29.7654 18.9808 29.1147 19.0572C29.7997 18.6472 30.3124 18.0024 30.5573 17.2427C29.913 17.6244 29.2086 17.8939 28.474 18.0397C28.024 17.5588 27.4396 17.2244 26.7969 17.0799C26.1542 16.9355 25.4829 16.9876 24.8702 17.2296C24.2575 17.4716 23.7319 17.8923 23.3616 18.4369C22.9913 18.9815 22.7936 19.6248 22.794 20.2833C22.794 20.5412 22.8227 20.7911 22.8807 21.0303C21.575 20.966 20.2975 20.6275 19.1315 20.0368C17.9655 19.4461 16.9371 18.6165 16.1133 17.6019C15.8207 18.1027 15.6671 18.6725 15.6687 19.2525C15.6687 20.3899 16.2467 21.3948 17.1293 21.9832C16.608 21.9666 16.0982 21.8254 15.6427 21.5713V21.6133C15.6422 22.3711 15.9043 23.1056 16.3843 23.6921C16.8644 24.2786 17.5328 24.6808 18.276 24.8305C17.7927 24.9629 17.2854 24.9825 16.7933 24.8878C17.0029 25.5397 17.411 26.1098 17.9606 26.5186C18.5102 26.9275 19.1737 27.1545 19.8587 27.168C19.1778 27.7022 18.3981 28.0969 17.5644 28.3296C16.7307 28.5623 15.8593 28.6284 15 28.524C16.5003 29.4891 18.2472 30.0015 20.0313 30C26.07 30 29.3727 24.9997 29.3727 20.6631C29.3727 20.5232 29.3673 20.3792 29.362 20.2386C30.0037 19.7742 30.5582 19.2001 31 18.5428V18.5421Z" fill="#F6F6F6"/>
</svg>