<svg xmlns="http://www.w3.org/2000/svg" width="46" height="46" viewBox="0 0 46 46" fill="none">
  <path d="M1 10C1 5.02944 5.02944 1 10 1H36C40.9706 1 45 5.02944 45 10V36C45 40.9706 40.9706 45 36 45H10C5.02944 45 1 40.9706 1 36V10Z" fill="#151515" stroke="#383F3E" stroke-width="2"/>
  <path d="M32.5992 19.0296C32.491 18.637 32.2793 18.279 31.9852 17.9915C31.6911 17.704 31.3248 17.497 30.9232 17.3913C29.444 17 23.5 17 23.5 17C23.5 17 17.556 17 16.0768 17.3913C15.6752 17.497 15.3089 17.704 15.0148 17.9915C14.7207 18.279 14.509 18.637 14.4008 19.0296C14.1246 20.5042 13.9906 22.0009 14.0005 23.5C13.9906 24.9991 14.1246 26.4958 14.4008 27.9704C14.509 28.363 14.7207 28.721 15.0148 29.0085C15.3089 29.296 15.6752 29.503 16.0768 29.6087C17.556 30 23.5 30 23.5 30C23.5 30 29.444 30 30.9232 29.6087C31.3248 29.503 31.6911 29.296 31.9852 29.0085C32.2793 28.721 32.491 28.363 32.5992 27.9704C32.8754 26.4958 33.0094 24.9991 32.9995 23.5C33.0094 22.0009 32.8754 20.5042 32.5992 19.0296ZM21.6001 26.2857V20.7143L26.5331 23.5L21.6001 26.2857Z" fill="#F6F6F6"/>
</svg>